<svg width="50" height="76" viewBox="0 0 50 76" fill="none" xmlns="http://www.w3.org/2000/svg">
<path d="M12.04 2.652V3.768C12.604 2.976 13.24 2.52 14.044 2.52C14.872 2.52 15.46 3.012 15.58 3.756C16.12 3 16.816 2.52 17.62 2.52C18.592 2.52 19.264 3.156 19.264 4.272V8.784H18.28V4.62C18.28 3.756 17.908 3.372 17.272 3.372C16.684 3.372 16.06 3.852 15.64 4.584V8.784H14.68V4.62C14.68 3.732 14.32 3.372 13.72 3.372C13.156 3.372 12.52 3.816 12.064 4.584V8.784H11.104V2.652H12.04ZM23.6959 2.52C25.2319 2.52 26.3239 3.732 26.3239 5.712C26.3239 7.692 25.2439 8.94 23.6839 8.94C22.1239 8.94 21.0559 7.716 21.0559 5.748C21.0559 3.768 22.1359 2.52 23.6959 2.52ZM23.6959 3.276C22.6639 3.276 22.0519 4.152 22.0519 5.724C22.0519 7.308 22.6639 8.184 23.6839 8.184C24.7039 8.184 25.3279 7.32 25.3279 5.724C25.3279 4.152 24.7159 3.276 23.6959 3.276ZM31.0711 2.52L30.9991 3.468C30.2431 3.468 29.4991 4.068 29.1151 5.268V8.784H28.1431V2.652H29.0791V4.212C29.5351 3.036 30.2671 2.52 31.0711 2.52ZM37.3976 5.856H33.1016C33.1016 7.356 33.8096 8.196 34.9016 8.196C35.7296 8.196 36.2216 7.812 36.4616 6.948L37.3616 7.248C36.9656 8.352 36.1736 8.928 34.8896 8.928C33.2336 8.928 32.1536 7.728 32.1536 5.736C32.1536 3.78 33.2816 2.508 34.8056 2.508C36.3056 2.508 37.3976 3.672 37.3976 5.64V5.856ZM33.1256 5.16H36.4496C36.3536 3.924 35.7536 3.252 34.8176 3.252C33.8696 3.252 33.2096 3.996 33.1256 5.16Z" fill="#707070"/>
<circle cx="25" cy="51" r="24.5" stroke="#E65B5B"/>
<path d="M24.9972 14L24.9972 50.6438L28.4219 47.2192" stroke="#707070"/>
</svg>
