<svg width="26" height="24" viewBox="0 0 26 24" fill="none" xmlns="http://www.w3.org/2000/svg">
<path d="M8.0127 23.8654L2.38229 23.8977C2.04856 23.8977 1.6933 23.8977 1.41339 23.6929C1.05813 23.4343 0.918176 22.9385 0.842817 22.4643C0.595208 20.9878 0.713628 19.4574 0.788988 17.9486C1.01506 13.6915 0.885877 9.42364 0.412192 5.18811C0.29377 4.09959 0.143052 2.97874 0.412192 1.93333C0.681331 0.887922 1.51028 -0.071269 2.46842 0.00417288C2.9744 0.0472825 3.43732 0.359829 3.86795 0.683151C4.71843 1.30824 5.55814 1.97644 6.38709 2.64464C7.65743 3.65772 8.92777 4.67079 10.2089 5.67309C11.2747 6.51373 12.3297 7.36515 13.2878 8.36745C14.3106 9.44519 15.1826 10.6846 16.2053 11.7623C18.6599 14.3597 21.9003 15.9547 24.0319 18.897C24.5271 19.576 24.9577 20.3412 25.0654 21.2141C25.173 22.0871 24.8824 23.0678 24.2041 23.4882C23.8489 23.7037 23.429 23.7576 23.0307 23.7899C18.7675 24.1671 14.472 23.8654 10.2842 22.917L8.02346 23.8761L8.0127 23.8654Z" fill="#00A27A"/>
</svg>
