<svg width="29" height="29" viewBox="0 0 29 29" fill="none" xmlns="http://www.w3.org/2000/svg">
<path d="M16.938 28.1199C21.1087 27.7514 24.7066 24.8958 27.067 21.4758C27.8232 20.3934 28.4763 19.2189 28.7857 17.9293C29.2097 16.156 28.9232 14.3021 28.6253 12.5057C28.1899 9.90339 27.7086 7.25498 26.4482 4.92898C26.093 4.27263 25.6691 3.63929 25.0962 3.17869C24.5576 2.74113 23.9045 2.4648 23.2629 2.19996C21.2806 1.35937 19.264 0.507259 17.1327 0.173327C13.2026 -0.448476 9.23806 0.714515 5.4454 1.88903C4.90687 2.06176 4.35687 2.2345 3.89854 2.55691C3.38292 2.93691 3.02772 3.4781 2.69544 4.03082C1.28608 6.39137 0.197551 9.00522 0.0256785 11.7458C-0.134736 14.3021 0.484002 16.8354 1.1142 19.3226C1.36628 20.3128 1.61836 21.3031 2.09961 22.2013C2.66106 23.2491 3.52043 24.1012 4.41416 24.8958C5.60581 25.9436 6.88913 26.8879 8.24119 27.7169C9.05472 28.2121 9.90263 28.6726 10.8193 28.8914C12.939 29.3981 14.7494 27.9587 16.9265 28.1084L16.938 28.1199Z" fill="#00A27A"/>
</svg>
