<svg width="33" height="35" viewBox="0 0 33 35" fill="none" xmlns="http://www.w3.org/2000/svg">
<path d="M32.1924 19.742C31.3762 20.6577 32.9141 22.1228 32.2038 23.1995C31.4936 24.2762 30.3622 25.0078 29.2586 25.6973C25.0376 28.3826 20.8011 31.0638 16.5801 33.7492C15.8235 34.2253 15.0472 34.7127 14.1769 34.9014C12.2358 35.3163 10.3721 34.0785 9.31086 32.5344C8.2496 30.9903 7.74242 29.1393 6.86157 27.4779C5.4837 24.8878 3.23729 22.8515 1.67901 20.3786C0.120731 17.9058 -0.699645 14.5624 0.972548 11.963C1.72715 10.7822 2.91122 9.91562 4.05611 9.0716C7.29799 6.70318 10.5538 4.31365 14.1152 2.45351C16.2619 1.33178 18.7995 0.389584 20.9643 1.24429C22.4488 1.82516 23.4556 3.1393 24.3583 4.40893C26.9689 8.02588 29.4732 11.7303 31.8544 15.4927C31.8544 15.4927 33.3072 18.484 32.1924 19.742Z" fill="#F5A549"/>
</svg>
