<svg width="25" height="25" viewBox="0 0 25 25" fill="none" xmlns="http://www.w3.org/2000/svg">
<path d="M24.0213 17.4728L24.0525 22.9224C24.0525 23.2454 24.0525 23.5893 23.8548 23.8602C23.605 24.2041 23.1262 24.3396 22.6682 24.4125C21.2422 24.6522 19.7642 24.5375 18.307 24.4646C14.1956 24.2458 10.0738 24.3708 5.98322 24.8293C4.93195 24.9439 3.84945 25.0898 2.83982 24.8293C1.83018 24.5688 0.903826 23.7664 0.976686 22.8391C1.01832 22.3493 1.32016 21.9013 1.63242 21.4845C2.23612 20.6613 2.88146 19.8485 3.52679 19.0462C4.5052 17.8166 5.4836 16.587 6.4516 15.3471C7.26347 14.3155 8.08575 13.2943 9.05375 12.3669C10.0946 11.377 11.2916 10.533 12.3325 9.5431C14.8409 7.16733 16.3814 4.03092 19.2229 1.96775C19.8787 1.48843 20.6177 1.07164 21.4608 0.967437C22.3039 0.863237 23.2511 1.14456 23.657 1.80103C23.8652 2.14489 23.9172 2.55126 23.9484 2.93681C24.3127 7.06314 24.0213 11.2207 23.1053 15.2741L24.0317 17.4623L24.0213 17.4728Z" fill="#F5A549"/>
</svg>
