<svg width="29" height="30" viewBox="0 0 29 30" fill="none" xmlns="http://www.w3.org/2000/svg">
<path d="M0.665851 18.1715C3.43133 13.0862 -2.16521 6.57701 1.0047 1.67251C1.39821 1.07358 1.93382 0.508521 2.66618 0.237305C3.24551 0.0225917 3.87949 0 4.51347 0C11.9026 0.0226014 19.2044 3.10769 23.7734 8.12519C28.3425 13.1427 30.0695 20.0022 28.3425 26.2063C28.0255 27.3589 27.5336 28.5568 26.4405 29.2801C24.5386 30.5457 21.8496 29.8225 19.4776 29.5061C15.3568 28.9523 11.1703 29.8451 7.00568 29.7321C2.84107 29.6191 2.3164 28.9071 1.04843 25.483L0.665851 18.1602V18.1715Z" fill="#00A27A"/>
</svg>
