<svg width="423" height="422" viewBox="0 0 423 422" fill="none" xmlns="http://www.w3.org/2000/svg">
<path d="M246.996 409.133C307.71 403.688 360.275 362.287 394.785 312.478C405.73 296.703 415.396 279.566 419.87 260.908C426.021 235.123 421.947 208.136 417.553 181.95C411.242 144.073 404.212 105.556 385.838 71.7625C380.646 62.2332 374.494 53.1042 366.026 46.2175C358.198 39.8913 348.691 35.8073 339.345 31.8834C310.346 19.6314 281.028 7.37941 249.952 2.49462C192.674 -6.47417 134.917 10.3423 79.5556 27.4791C71.6469 29.8815 63.6583 32.444 56.9478 37.2487C49.3587 42.694 44.1661 50.7019 39.373 58.7097C18.7624 93.0634 2.94495 131.101 0.388603 170.98C-2.00797 208.136 7.09905 244.972 16.206 281.168C19.8009 295.502 23.4757 310.076 30.5056 323.049C38.7339 338.264 51.2759 350.756 64.2973 362.207C81.7125 377.422 100.406 391.196 120.138 403.287C131.961 410.494 144.343 417.221 157.844 420.424C188.76 427.791 215.202 406.811 246.917 409.053L246.996 409.133Z" fill="#EE7C73"/>
</svg>
