<svg width="35" height="34" viewBox="0 0 35 34" fill="none" xmlns="http://www.w3.org/2000/svg">
<path d="M26.9589 29.9388C30.7559 27.1932 30.5723 21.652 32.8731 17.6873C33.673 16.3018 34.8258 15.0017 34.8162 13.3384C34.7982 11.0545 32.5714 9.011 30.2897 7.80023C27.1853 6.15001 23.6522 5.36534 20.717 3.42205C19.5123 2.61995 18.433 1.64158 17.1566 0.963802C15.8801 0.286028 14.2893 -0.0521981 13.164 0.565153C12.5421 0.904747 12.1351 1.48681 11.7612 2.05247C8.0944 7.50209 4.62652 13.0784 1.33982 18.7711C1.00141 19.3573 0.657454 20.035 0.904384 20.7341C1.11249 21.316 1.67847 21.7494 2.21921 22.1444C7.45709 25.9382 13.0274 29.3201 18.8047 32.2411C21.0056 33.346 20.7901 32.9611 23.171 33.1397L26.9551 29.9248L26.9589 29.9388Z" fill="#EE7C73"/>
</svg>
