<svg width="80" height="82" viewBox="0 0 80 82" fill="none" xmlns="http://www.w3.org/2000/svg">
<path d="M47.8811 79.4998C59.6506 78.4417 69.8405 70.397 76.5305 60.7186C78.6521 57.6532 80.5259 54.3233 81.3932 50.6977C82.5856 45.6873 81.7958 40.4435 80.944 35.3553C79.7206 27.9953 78.3579 20.5108 74.796 13.9444C73.7894 12.0927 72.597 10.3188 70.9555 8.98064C69.4378 7.75138 67.595 6.95781 65.7831 6.19536C60.1616 3.81464 54.4782 1.43391 48.4541 0.484736C37.3505 -1.25801 26.154 2.00964 15.4221 5.33954C13.889 5.80635 12.3404 6.30428 11.0395 7.23789C9.56835 8.29599 8.56175 9.85202 7.63258 11.408C3.63716 18.0834 0.570889 25.4745 0.075332 33.2235C-0.389253 40.4435 1.37617 47.6012 3.1416 54.6345C3.83847 57.4198 4.55084 60.2517 5.91362 62.7725C7.50869 65.729 9.94001 68.1564 12.4643 70.3815C15.8402 73.3379 19.464 76.0143 23.2891 78.3639C25.581 79.7643 27.9814 81.0714 30.5986 81.6938C36.5917 83.1253 41.7176 79.0486 47.8656 79.4842L47.8811 79.4998Z" fill="#F6E6D0"/>
</svg>
