<svg width="30" height="30" viewBox="0 0 30 30" fill="none" xmlns="http://www.w3.org/2000/svg">
<path d="M0.688811 18.1715C3.54965 13.0862 -2.23987 6.57701 1.03935 1.67251C1.44642 1.07358 2.0005 0.508521 2.75811 0.237305C3.35742 0.0225917 4.01327 0 4.66911 0C12.3131 0.0226014 19.8666 3.10769 24.5932 8.12519C29.3198 13.1427 31.1064 20.0022 29.3198 26.2063C28.9919 27.3589 28.483 28.5568 27.3523 29.2801C25.3847 30.5457 22.6031 29.8225 20.1493 29.5061C15.8863 28.9523 11.5555 29.8451 7.24725 29.7321C2.93904 29.6191 2.39627 28.9071 1.08459 25.483L0.688811 18.1602V18.1715Z" fill="#21395E"/>
</svg>
