<svg width="26" height="26" viewBox="0 0 26 26" fill="none" xmlns="http://www.w3.org/2000/svg">
<path d="M17.9752 24.8136C16.5865 25.6062 14.973 25.7435 13.4107 25.8598C11.0722 26.0394 8.64186 26.2085 6.45659 25.268C5.59882 24.8981 4.80231 24.3486 4.07729 23.7146C2.29027 22.14 0.983192 19.9419 0.380709 17.5325C-0.834467 12.7136 0.952554 7.29238 4.41427 3.99526C7.876 0.69814 12.7776 -0.538281 17.3319 0.212024C19.2721 0.529055 21.2532 1.24765 22.6113 2.79053C23.8265 4.1749 24.4085 6.06652 24.8885 7.9053C25.6033 10.6529 26.1751 13.4956 25.9505 16.3383C25.7258 19.181 24.6128 22.0554 22.499 23.7568" fill="#21395E"/>
</svg>
