<svg width="367" height="358" viewBox="0 0 367 358" fill="none" xmlns="http://www.w3.org/2000/svg">
<path d="M113.522 16.9983C133.055 6.13284 155.748 4.24947 177.722 2.65588C210.612 0.193015 244.794 -2.12492 275.529 10.7688C287.593 15.8393 298.796 23.3727 308.993 32.0651C334.127 53.6511 352.511 83.7847 360.985 116.816C378.076 182.878 352.942 257.197 304.254 302.398C255.566 347.598 186.627 364.548 122.571 354.262C95.2824 349.916 67.4195 340.065 48.3176 318.913C31.2265 299.935 23.04 274.003 16.2898 248.795C6.23615 211.128 -1.80675 172.157 1.35296 133.186C4.51266 94.2155 20.1675 54.8101 49.8975 31.4856" fill="#D12334"/>
</svg>
