<svg width="27" height="28" viewBox="0 0 27 28" fill="none" xmlns="http://www.w3.org/2000/svg">
<path d="M0.61993 16.9601C3.19468 12.2138 -2.01589 6.13854 0.935411 1.56101C1.30178 1.002 1.80045 0.474635 2.4823 0.2215C3.02167 0.0211017 3.61194 0 4.20219 0C11.0818 0.0210946 17.8799 2.90051 22.1339 7.58351C26.3878 12.2665 27.9958 18.6687 26.3878 24.4592C26.0927 25.535 25.6347 26.653 24.617 27.3281C22.8463 28.5093 20.3427 27.8343 18.1343 27.539C14.2977 27.0222 10.3999 27.8554 6.52252 27.75C2.64513 27.6445 2.15664 26.98 0.976119 23.7842L0.61993 16.9495V16.9601Z" fill="#D12334"/>
</svg>
