<svg width="34" height="28" viewBox="0 0 34 28" fill="none" xmlns="http://www.w3.org/2000/svg">
<path d="M6.97058 19.8633C7.24601 14.5189 -0.157924 11.5232 0.53455 6.15719C0.624546 5.49921 0.848991 4.80927 1.36022 4.27809C1.76455 3.85777 2.29358 3.57238 2.83181 3.30557C9.11423 0.214395 16.5704 -0.322361 22.4942 1.87954C28.4179 4.08144 32.6795 8.99369 33.7416 14.8208C33.9422 15.9018 34.0128 17.0935 33.3796 18.1481C32.2807 19.9891 29.7031 20.5261 27.5604 21.2643C23.8362 22.5433 20.6458 25.0391 17.0641 26.6989C13.4824 28.3587 12.7469 27.9942 10.275 25.713L6.96598 19.854L6.97058 19.8633Z" fill="#F5A549"/>
</svg>
