<svg width="25" height="24" viewBox="0 0 25 24" fill="none" xmlns="http://www.w3.org/2000/svg">
<path d="M7.80545 23.9174L2.13548 23.9498C1.7994 23.9498 1.44164 23.9498 1.15977 23.7446C0.802006 23.4854 0.661071 22.9885 0.585182 22.5133C0.335833 21.0336 0.455086 19.4998 0.530975 17.9877C0.758641 13.7213 0.628546 9.44418 0.15153 5.19942C0.0322766 4.10853 -0.119501 2.98523 0.15153 1.93755C0.422562 0.889858 1.25734 -0.0714244 2.22221 0.00418198C2.73175 0.0473856 3.19792 0.360613 3.63157 0.68464C4.48803 1.31109 5.33365 1.98075 6.16843 2.65041C7.44769 3.66569 8.72696 4.68097 10.0171 5.68546C11.0904 6.52793 12.1528 7.3812 13.1177 8.38569C14.1476 9.46578 15.0257 10.7079 16.0556 11.788C18.5275 14.391 21.7907 15.9895 23.9372 18.9382C24.4359 19.6186 24.8696 20.3855 24.978 21.2604C25.0864 22.1352 24.7937 23.1181 24.1107 23.5394C23.7529 23.7554 23.3301 23.8094 22.929 23.8418C18.6359 24.2198 14.3102 23.9174 10.093 22.9669L7.8163 23.9282L7.80545 23.9174Z" fill="#D12334"/>
</svg>
