<svg width="25" height="24" viewBox="0 0 25 24" fill="none" xmlns="http://www.w3.org/2000/svg">
<path d="M17.0745 0.0824213L22.7049 0.0500904C23.0387 0.0500904 23.3939 0.050093 23.6738 0.254864C24.0291 0.513522 24.1691 1.00927 24.2444 1.48347C24.492 2.95998 24.3736 4.49037 24.2982 5.99921C24.0722 10.2563 24.2014 14.5241 24.675 18.7597C24.7935 19.8482 24.9442 20.9691 24.675 22.0145C24.4059 23.0599 23.577 24.019 22.6188 23.9436C22.1128 23.9005 21.6499 23.588 21.2193 23.2647C20.3688 22.6396 19.5291 21.9714 18.7001 21.3032C17.4298 20.2901 16.1595 19.277 14.8784 18.2747C13.8126 17.4341 12.7575 16.5826 11.7994 15.5803C10.7767 14.5026 9.90466 13.2632 8.88193 12.1854C6.42737 9.58808 3.18693 7.99303 1.05534 5.05079C0.560127 4.37182 0.129505 3.60663 0.0218488 2.73366C-0.085807 1.86069 0.204863 0.879957 0.883095 0.459637C1.23836 0.244089 1.65822 0.190203 2.05654 0.157871C6.31972 -0.219338 10.6152 0.0824265 14.803 1.03084L17.0638 0.0716334L17.0745 0.0824213Z" fill="#21395E"/>
</svg>
