<svg width="58" height="58" viewBox="0 0 58 58" fill="none" xmlns="http://www.w3.org/2000/svg">
<path d="M1.31868 34.8479C6.79557 25.0957 -4.28809 12.6129 1.98976 3.20741C2.76908 2.05882 3.82982 0.975234 5.28022 0.455117C6.42755 0.0433577 7.68313 0 8.9387 0C23.5726 0.0433431 38.0333 5.95968 47.0821 15.5819C56.1308 25.204 59.5512 38.3587 56.1308 50.2563C55.503 52.4668 54.5289 54.764 52.3641 56.151C48.5974 58.5782 43.272 57.1912 38.5745 56.5844C30.4133 55.5225 22.1222 57.2346 13.8744 57.0179C5.62659 56.8012 4.58749 55.4358 2.07635 48.8694L1.31868 34.8262V34.8479Z" fill="#F6E6D0"/>
</svg>
