<svg id="レイヤー_1" data-name="レイヤー 1" xmlns="http://www.w3.org/2000/svg" viewBox="0 0 623.32 222.38"><defs><style>.cls-1{fill:#fff;}</style></defs><path class="cls-1" d="M32.27,140s-.16-.11-.58-.1h.06A3.34,3.34,0,0,1,32.27,140Z"/><path class="cls-1" d="M93.42,115.66Z"/><path class="cls-1" d="M127.73,130.15l-.35-.11.35.11Z"/><path class="cls-1" d="M34.26,140.26Z"/><path class="cls-1" d="M29.53,139.08h0l-.24-.13,0,0Z"/><path class="cls-1" d="M194.57,125.63c-1.14.27-.43.14,0,0Z"/><path class="cls-1" d="M197.9,124.08c-.43.22-.46.24-.35.19l.32-.17Z"/><path class="cls-1" d="M247.92,101.59h.16l0,0,.15-.12A1.27,1.27,0,0,0,247.92,101.59Z"/><path class="cls-1" d="M248.31,101.51h0s0,0,0,0l-.13.06Z"/><path class="cls-1" d="M262.44,69.84h0l-.5.22-.11.06C262.64,69.85,262.65,69.78,262.44,69.84Z"/><path class="cls-1" d="M264.71,69h-.06C264.56,69,264.56,69.05,264.71,69Z"/><path class="cls-1" d="M272,114.53c.38-.18,1.26-.65,0,0Z"/><path class="cls-1" d="M268.36,69.93h0l.21.16Z"/><path class="cls-1" d="M247.67,101.74h.06l0,0h0l-.1,0h0Z"/><path class="cls-1" d="M295,207.38h0Z"/><path class="cls-1" d="M412.5,109.23l.11,0,.11,0,.17-.08.12,0,.06,0A2.1,2.1,0,0,0,412.5,109.23Z"/><path class="cls-1" d="M446.9,70.43h0c.08,0-.12-.16-.43-.1l.06,0Z"/><path class="cls-1" d="M447.93,70.41Z"/><path class="cls-1" d="M591.23,30.3h-.48C591,30.38,591.26,30.34,591.23,30.3Z"/><path class="cls-1" d="M551.41,31.48l-.43.07-.14,0h0C551.73,31.47,551.69,31.45,551.41,31.48Z"/><path class="cls-1" d="M552.54,31.47c-.49,0-.88.16,0,0Z"/><path class="cls-1" d="M605.07,140.55c-1.47.48-3,.87-4.45,1.23h0l-1.22.22c-.95.16-1.91.28-2.88.41h-.1l-1.22.08c-.79,0-1.59,0-2.39.05h-.18l-1.12-.08-1.07-.13-1-.17a45.2,45.2,0,0,1-8.39-2.81,42.66,42.66,0,0,1-7.53-4.26,63.4,63.4,0,0,1-20.46-24.27l.66-.6,2.22-2,.59-.54.05,0h0l1.35-1.22q2.43-2.17,4.89-4.34c3.37-3,6.74-6,10.09-9A266.72,266.72,0,0,0,592.7,73.75,114.72,114.72,0,0,0,608.45,52c2.33-4.28,4.2-8.83,4.14-13.79,0-3.74-2.54-7.26-5.24-9.66a15.9,15.9,0,0,0-12-4.07,36.73,36.73,0,0,0-16.84,5.74A29.65,29.65,0,0,0,573,34.88c-.11-.2-.2-.4-.31-.59a17.13,17.13,0,0,0-7-7.16,18.59,18.59,0,0,0-9.72-1.49c-7.61.64-16.52,3.62-20.93,10.3-3.89,5.89-5.73,12.92-6.37,19.89-1.46,15.89,1.83,32.06,7.33,46.91,1.25,3.38,2.59,6.73,4.12,10l-.82.71c-1.6,1.34-3.24,2.64-5,3.83q-.69.48-1.38.93l0,0-.39.24q-1.31.8-2.67,1.47l-.21.11-.21.09-.95.37a1.72,1.72,0,0,1-.43.17l-.06,0a3,3,0,0,0-.42.15l.25-.11c-.43.11-.87.21-1.29.34,1.84-.56.24-.09-.27,0H526c-.27,0-.58,0-.88.06l-.36,0L524,121c-.47-.06-.93-.15-1.4-.21.82.12-.1,0-.43-.13a19.18,19.18,0,0,1-2.45-.85,9.45,9.45,0,0,1-1.83-.92,21.84,21.84,0,0,1-2.14-1.46,29,29,0,0,1-10.34-17.88c-1.67-9.26.5-18.68,3.14-27.54.69-2.31,1.42-4.61,2.16-6.9s-4-2-5.11-1.84a14.29,14.29,0,0,0-4.68,1.52c-.89.5-2.11,1.16-2.44,2.21q-.82,2.55-1.62,5.12A80.43,80.43,0,0,1,486,89.67c-1.83,2.28-3.78,4.46-5.8,6.58-.9,1-1.82,1.89-2.75,2.81-.21.21-.42.43-.64.64l-.48.45-.57.48c-.38.3-.77.58-1.17.86l-.6.39a2.75,2.75,0,0,0-.42.26l-1,.52-.38.19c-.71.25-1.41.58-2.12.82h0l-1.3.37-1.14.29h0l-.25,0-.84.05h-.1c-.39,0-.79-.06-1.18-.11l-.35,0c-.35-.1-.71-.18-1.07-.3s-.63-.23-.94-.35a.8.8,0,0,0-.23-.07,1,1,0,0,0-.19-.13,10.76,10.76,0,0,1-1.83-1.39,8.37,8.37,0,0,1-2.15-4,21.24,21.24,0,0,1-.14-9.18c1.24-7,4-13.85,6.75-20.39.66-1.56-2-1.84-2.87-1.86a14.77,14.77,0,0,0-5.93,1.24s0,0-.14,0c-.48.2-.95.41-1.43.6-.65.26-1.31.51-2,.74l-.82.28-.36.11c-.89.27-1.79.47-2.69.7,2.24-.56.48-.11-.09,0a7.39,7.39,0,0,1-.85.06h.65c-.38,0-.76,0-1.14,0l-.53,0a.57.57,0,0,1-.28,0l-.09,0a.35.35,0,0,0-.15,0l.09,0-.49-.18a23.38,23.38,0,0,0-4.8-2.81,30.45,30.45,0,0,0-34.79,3.4,28.47,28.47,0,0,0-4.78,5,378.37,378.37,0,0,0-59.35,44.33,506.74,506.74,0,0,1,22.84-49q2-3.85,4.17-7.67c1-1.87-4.34-1.13-4.89-1a19.39,19.39,0,0,0-4.7,1.45,6,6,0,0,0-2.54,1.81,141.62,141.62,0,0,0-8.38,15.23c-2.77,5.47-5.44,11-8.61,16.28a24.16,24.16,0,0,1-5.65,6.64l-1.12.87-.24.16-.23.16c-.8.53-1.6,1-2.42,1.51l-1.05.59-.26.14c-.52-.13-1.07-.18-1.59-.35l-.5-.22a9.78,9.78,0,0,1-1.06-.57c-2.81-1.8-3.44-4.94-3.37-8.09a100.88,100.88,0,0,1,4.58-26.85c.33-.64.66-1.28,1-1.92.41-.86-.54-1.59-1.16-1.86a8.14,8.14,0,0,0-4-.22c-2.51.41-5.88,1.37-7.09,3.87a81.46,81.46,0,0,1-5.7,10A98.63,98.63,0,0,1,303,90.72Q301,93,299,95.2c-.7.73-1.41,1.44-2.13,2.15l-.09.08a4.19,4.19,0,0,1-.32.31l-1.25,1.16a101.11,101.11,0,0,1-9.4,7.61c-.77.55-1.55,1.09-2.33,1.61l-.46.31-1.42.9c-1.72,1.06-3.46,2.07-5.24,3-.83.45-1.67.89-2.51,1.31l-1.36.67-.51.25.11-.06-.08,0q-2.74,1.25-5.57,2.34c-.88.33-1.77.66-2.66,1l-.83.28-1,.31c-.95.29-1.91.57-2.87.83-.61.16-1.22.32-1.84.46a4.38,4.38,0,0,0-.64.14l-.25,0c-.55.09-1.1.14-1.64.23h0l-.77,0c-.31,0-.61,0-.92,0l-1.74-.24-.59-.2c-.58-.21-1.12-.5-1.67-.75h0l-.08,0c-.26-.18-.53-.35-.78-.54a13.27,13.27,0,0,1-1.59-1.4,14,14,0,0,1-1.24-1.53h0c-.08-.13-.15-.26-.22-.4a11.56,11.56,0,0,1-.61-1.28,13,13,0,0,1-.79-6,21.23,21.23,0,0,0,3.29-.36c6.48-1.23,12-4.59,17-8.77a67.23,67.23,0,0,0,10.63-10.83,38.36,38.36,0,0,0,6.52-12.65c.61-2.2,1.17-4.78.57-7a5.71,5.71,0,0,0-3.84-4,22,22,0,0,0-14.13-.65,49,49,0,0,0-13.84,6.49,32.69,32.69,0,0,0-5.59,5.12c-1.21-.54-3.83-.19-4.44-.08a17.2,17.2,0,0,0-4.69,1.48c-.84.43-2.15,1-2.51,2a110.43,110.43,0,0,1-14.36,25.95,92.58,92.58,0,0,1-9.69,11.25c-1.68,1.66-3.46,3.22-5.28,4.72l-.16.13-.12.1-.57.42c-.47.35-1,.69-1.43,1-1,.69-2,1.32-3.07,2h0l.08,0-.11.06-.32.17-.31.16c-.62.32-1.25.61-1.89.91l-.28.13-.44.14-.06,0,.3-.07c-.27.06-.55.15-.83.23a2.45,2.45,0,0,0-.41.08l-.26,0a4.83,4.83,0,0,1-.93,0l-.54-.07a11.29,11.29,0,0,1-1.64-.43c-4.29-1.47-7.2-6-8.78-10.07-2.78-7.14-2.95-15.3-2.78-22.86.09-3.69.33-7.39.69-11.06.12-1.18.26-2.36.4-3.53h0l.06-.45c0-.11,0-.23,0-.34.31-2.19-3.73-1.55-5-1.32a17.06,17.06,0,0,0-4.58,1.43l-.2-.14c-6.08-3.65-13.87-3.22-20.12-.27-1.44.68-3.9,3.16-1.27,4.09a9.65,9.65,0,0,0,6.17-.33c.19,0,.39,0,.58.06s1.59.2.88.15.07,0,.24.08l.78.26c.43.17.84.37,1.27.55l.08,0c.27.17.54.34.8.53a9.67,9.67,0,0,1,2,2l.11.14a7.58,7.58,0,0,1,.4.74,6,6,0,0,1,.5,2,37.53,37.53,0,0,1,.19,7.16,32.94,32.94,0,0,1-4,13l-.31.55-.23.38c-.3.48-.6.94-.91,1.41-.71,1-1.46,2.07-2.24,3.06a71,71,0,0,1-5.31,5.92c-.51.52-1,1-1.55,1.53l-.58.56-.19.18-.17.16c-1,.93-2,1.87-3.08,2.75-.9.76-1.83,1.5-2.78,2.19-.37.27-.77.62-1.19.87l-.3.15c-.38.24-.76.47-1.15.69-.57.32-1.15.63-1.73.92-.12.06-1.31.56-.39.2s-.31.12-.41.17c-.65.27-1.3.5-2,.75h0c-.42.11-.84.25-1.27.36l-.71.17c-.58.09-1.16.14-1.73.24,1.8-.31-.15,0-.65,0h-.18a8.6,8.6,0,0,0-1-.08l-1-.17,0,0,0,0h0c-.16,0-.44-.14-.33-.11a13,13,0,0,1-1.24-.43,8.59,8.59,0,0,1-.87-.4l-.18-.1a12.58,12.58,0,0,1-1.63-1.28,10.85,10.85,0,0,1-3-7c-.51-5.32,1.23-11,3-15.94.38-1,.79-2.05,1.21-3q6.08-4.47,12.08-9c3.88-3,8.06-6.8,9.61-11.6a9.43,9.43,0,0,0-.2-6.52c-.66-1.55-3.09-1.44-4.42-1.32a13.63,13.63,0,0,0-6.58,2.33,66.11,66.11,0,0,0-21.92,26.17c-6.34,4.64-12.77,9.17-19.36,13.45l-.76.5.24-.16-.24.16-1.53,1c-1.15.73-2.31,1.44-3.47,2.15q-3.27,2-6.62,3.91c-4.51,2.57-9.11,5-13.81,7.22l-.64.3h0l-1.65.74c-1.2.54-2.41,1.06-3.62,1.57q-3.08,1.29-6.19,2.46c-2.1.79-4.21,1.53-6.34,2.25l-.67.22-1.51.46c-1.09.33-2.18.65-3.28.94-.91.25-1.82.48-2.74.69l-.65.15-.2,0-.6.09c-.37.06-.75.12-1.12.16l-.53.07h-.37c-.49,0-1,.05-1.48.06-.75,0-1.51,0-2.26,0h.36l-.35,0-1.29-.15-.35-.08s-.1,0-.26,0l-.26-.07s-.09,0-.12,0h.06l-.15,0a13.26,13.26,0,0,1-2-.78.65.65,0,0,1-.21-.11l-.21-.11.18.09h0c-.28-.22-.6-.4-.88-.63a11.11,11.11,0,0,1-1.54-1.45q-.34-.39-.66-.81a4.06,4.06,0,0,0-.28-.4l-.16-.26a18.66,18.66,0,0,1-1.15-2.33A19.84,19.84,0,0,1,23,127.44a20.37,20.37,0,0,1,.4-6.37C26,112.55,40.69,80.29,44.86,71.94c8.25-16.49,17.36-32.45,26.86-48.07,1.33-2.18,2.67-4.37,4-6.54.45-.73.82-1.43.09-2.14s-2.35-.8-3.24-.77A18.38,18.38,0,0,0,67,15.57l-5.33,2.22C51.31,34.6,42.26,51.36,33.28,69c-9.13,17.88-20,45-21.54,52.73-.8,3.86-1.54,7.83-.47,11.69,1,3.48,2.63,7.12,5.52,9.42a17.49,17.49,0,0,0,9.51,3.41,46.1,46.1,0,0,0,12.3-.56c9.73-1.83,19.25-5.25,28.35-9.11a220,220,0,0,0,29.41-15.31c4.39-2.71,8.71-5.54,13-8.44a35.71,35.71,0,0,0-1.26,10.38,13.71,13.71,0,0,0,3.14,8.44c2.12,2.5,5.27,3.77,8.4,4.42,7.24,1.52,15.37-.47,22-3.41a59.53,59.53,0,0,0,16.78-11.72,77,77,0,0,0,8.78-9.62,39.76,39.76,0,0,0,1.79,6.84c1.67,4.58,4.78,9.31,9.33,11.4,6.72,3.09,15,1.35,21.63-1.28,10.72-4.28,19.44-12,26.64-20.9,1.58-2,3.1-4,4.58-6a16.33,16.33,0,0,0,1,1.66l.18.22q-.45,2.34-.84,4.68c-.72,4.29-.39,8.33,2.07,12,5.41,8.07,16.55,7.11,24.8,5.2a103.23,103.23,0,0,0,27.66-11.13,107.73,107.73,0,0,0,24.81-19.58c-.18,1.66-.33,3.32-.43,5-.23,3.78-.05,7.5,3,10.15,2.87,2.47,7,2.8,10.62,2.58a31.82,31.82,0,0,0,11.79-3.3q-5.33,12.27-10,24.79c-.42,1.13-.83,2.26-1.23,3.4q-7,7.11-13.83,14.49c-4.53,4.92-8.94,10-13.33,15a165.44,165.44,0,0,0-12.13,15,44.91,44.91,0,0,0-7.53,16.91c-.78,4.17-1,9.12,2.74,12s9.15,2.05,13.21,1c5.56-1.39,10.19-4.71,14.22-8.7,7.89-7.81,12.69-18,16.31-28.31,3.75-10.73,6.4-21.79,10-32.56q1.14-3.39,2.34-6.76c2.58-2.57,5.17-5.13,7.8-7.65,9.33-8.93,19-17.46,29.15-25.49q7.56-6,15.43-11.61l.59-.42.71-.5,2.12-1.47,3.93-2.68.33-.21A51.22,51.22,0,0,0,394,98.75c-.34,4.8-.42,10.5,3.49,14,4.42,4,11.2,3.9,16.61,2.48,5.82-1.53,11.29-5.22,15.87-9,8.94-7.46,16.38-18.08,18.39-29.72a1.88,1.88,0,0,0-.09-1c.94-.2,1.86-.42,2.75-.65a85.09,85.09,0,0,0-4.81,15.35,26.62,26.62,0,0,0-.24,10.63,11.13,11.13,0,0,0,6.85,8c3.84,1.63,8.45,1.54,12.49.91a51.36,51.36,0,0,0,14-4.48c5.14-2.46,9.29-6.36,13.09-10.53,0,1,0,2,0,3a33.07,33.07,0,0,0,9.19,22,24.17,24.17,0,0,0,9.95,6.13,31.14,31.14,0,0,0,16.15.07,45,45,0,0,0,15.45-7.14c.67,1.17,1.37,2.33,2.13,3.46a65.31,65.31,0,0,0,13.52,15,53.71,53.71,0,0,0,17.71,9.45,39.64,39.64,0,0,0,11.5,1.71,62.7,62.7,0,0,0,13.16-1.64,52.89,52.89,0,0,0,5.12-1.37,13.48,13.48,0,0,0,4.16-1.88c.57-.44,1.58-1.33,1.35-2.21C611.31,139.18,606.31,140.15,605.07,140.55Zm-450.66-60h.15C153.83,80.69,154.06,80.6,154.41,80.53Zm7.37,3.88ZM38,140.23l.8-.08A1.68,1.68,0,0,1,38,140.23Zm3-.49c-.22.06-.46.11-.7.15Zm152.43-13.8.23-.06h0C193.11,126,193.21,126,193.47,125.94Zm.64-.15s0,0,0,0S194.12,125.79,194.11,125.79Zm1.14-.38a2.27,2.27,0,0,0,.36-.18A1.1,1.1,0,0,1,195.25,125.41ZM246.34,101Zm1.3.7h.06a.7.7,0,0,1,.16-.1l.08,0-.14.06.19,0h0l-.17,0h.12l-.18,0a.93.93,0,0,0-.2.09l.14-.09Zm.71-.1h.08Zm-.19,0h0Zm-.13,0h0Zm0,0h0Zm9.71-7.45Zm-4.3-16.39a33.4,33.4,0,0,1,3.34-4.08l.3-.31c.27-.21.52-.46.78-.69.63-.53,1.3-1,2-1.49l.26-.16,1-.55.79-.41-.16.06c.09,0,.18-.08.27-.12l.24-.12a1.53,1.53,0,0,1,.29-.11c.72-.31,1.45-.59,2.19-.86h0l.11-.06.12,0,.23-.08.22-.06a6.56,6.56,0,0,1-.62.24c.65.1,1.29.22,1.94.33l.29.09c.35.1.69.22,1,.35l.36.16-.12-.11.15.12.06,0c.2.06.27.2.12.12a1.86,1.86,0,0,1,.32.31c.92,1.22.68,3.37.36,4.89a30.52,30.52,0,0,1-2,6,37.7,37.7,0,0,1-6.64,9.9c-.71.8-1.45,1.58-2.2,2.35l-.57.56-.12.12-1.12,1c-1.6,1.44-3.25,2.83-5,4.14l-1.39,1-.11.07-.57.36c-.17.1-1,.43-1.33.66.05,0,.07,0,.07,0,.32-.14.73-.28,0,0,0,0-.05.06-.13.1h-.08l.08,0-.09,0v0h0l-.13,0-.08,0,0,0c-.06,0-.09,0-.07,0-.41-.13-.8-.3-1.2-.46l-.15-.05c-.15-.1-.31-.2-.45-.31a9.7,9.7,0,0,1-1-.81l-.13-.15C246.5,92,248.79,84.32,253.41,77.82Zm41.7,129.55H295c-.13,0-.26-.05-.4-.06S294.74,207.27,295.11,207.37Zm20.52-41.64c-3.05,10.3-6.45,20.75-12.29,29.86a43.87,43.87,0,0,1-9.93,11.2l-.11.09-.33-.16a6.92,6.92,0,0,1-.77-.52,5.46,5.46,0,0,1-.44-.38s-.36-.38-.38-.39a8.89,8.89,0,0,1-1.68-4.85c-.43-5.61,2-11.45,4.6-16.26a90,90,0,0,1,10.78-14.88q6.07-7.12,12.33-14.08c.64-.72,1.3-1.42,1.95-2.14C318.1,157.38,316.87,161.55,315.63,165.73ZM435.35,75.57l0,0S435.33,75.53,435.35,75.57ZM447,70.48Zm-27.4.1.07,0C420.47,70.23,420,70.45,419.6,70.58Zm-.12,0-.19,0Zm-2.75,1.58-.11.07Zm.39-.29Zm-7.67,36.49Zm2.8.95h0l.07,0h0Zm0,0h0l0,0Zm.17,0c-.08,0-.15.06-.16,0ZM424.77,100l-.3.31-.22.23c-.39.41-.8.82-1.21,1.21-.82.81-1.67,1.58-2.54,2.33s-1.68,1.36-2.54,2l-.06,0-.39.27c-.54.37-1.08.72-1.63,1.06-.85.54-1.72,1-2.61,1.52l-.2.11h.1l-.16,0-.13.08h0l-.16,0-.07,0h0l-.11,0-.12,0,.12-.06a2.33,2.33,0,0,0-.78,0l-.72-.14-.05,0-.25-.1-1.05-.5-.08,0a5.19,5.19,0,0,1-.46-.36,7.76,7.76,0,0,1-.94-1,9.88,9.88,0,0,1-1.81-5.08,41.68,41.68,0,0,1,.94-12.38,43,43,0,0,1,1.75-6.4,24.93,24.93,0,0,1,2.62-5.42,27,27,0,0,1,1.65-2.32c.28-.34.58-.67.86-1v0l.63-.63c.64-.62,1.32-1.18,2-1.74h0a4.85,4.85,0,0,1,.4-.28c.42-.28.85-.54,1.28-.78.05,0,.36-.16.54-.27l.48-.2a9.92,9.92,0,0,0,1-.29l.55-.09.37,0h.2l.89,0c.36,0,.42,0,.3,0a14.32,14.32,0,0,1,3.49.81c-.7-.22.76.29,1,.37.63.24,1.24.5,1.85.77,1.16.52,2.29,1.09,3.41,1.69l1.76,1,.7.41a.49.49,0,0,0,.07.11,2.09,2.09,0,0,0,.23.29,2.51,2.51,0,0,0-.45.93A1.72,1.72,0,0,0,436,78.61C434.44,86.87,430.41,93.65,424.77,100Zm42.94,4.36.4-.08A1.49,1.49,0,0,1,467.71,104.33Zm4.36-1.41Zm.25-.11.14-.06Zm52.54,18.34h0Zm4.48-1a1.11,1.11,0,0,1-.26.1A1.67,1.67,0,0,0,529.34,120.19Zm61.35-89.92h0Zm0,0h0l-.07,0Zm-3.18,1.43-.17.13A.67.67,0,0,1,587.49,31.7Zm-37-.07h0ZM548.35,33l-.37.33A1,1,0,0,1,548.35,33ZM543,43.15a33.15,33.15,0,0,1,3.62-8,14.76,14.76,0,0,1,1.15-1.46l.25-.3c.16-.14.31-.27.47-.39s.49-.38.75-.56h0a5.15,5.15,0,0,0,.74-.43l.21-.11.61-.24.06,0h0l.05,0,.15,0,.43-.07h.1a8.08,8.08,0,0,0,1.21,0l-.18,0h.07a7.55,7.55,0,0,1,1,.14l.26.1c.37.12.74.25,1.11.4l.47.25a7.52,7.52,0,0,1,.75.5,15.87,15.87,0,0,1,3.44,3.64,17.52,17.52,0,0,1,.64,18.37c-.45.82.54,1.49,1.12,1.71a8.38,8.38,0,0,0,4,.13c2.56-.43,5.74-1.34,7.13-3.73,1.91-3.28,3.61-6.68,5.48-10a34.15,34.15,0,0,1,2.45-3.92A35.93,35.93,0,0,1,583.84,35c.35-.36.71-.72,1.07-1.07l.43-.4,0,0,0,0c.73-.6,1.46-1.2,2.21-1.77l.13-.1.21-.1c.32-.18.66-.35,1-.52l.33-.15c.42-.17.85-.31,1.27-.47h0c-1.35.53-.38.16.2,0h.2a.63.63,0,0,1,.28,0h0l.28.1a10,10,0,0,1,1,.39l.68.34c.35.21.69.42,1,.66a13.69,13.69,0,0,1,5.75,7.76c.93,4-.88,8.39-2.59,11.9a93.49,93.49,0,0,1-13.61,19.9,214.79,214.79,0,0,1-17.5,17.82c-.77.71-1.54,1.42-2.32,2.12l-.95.87-.85.77-4.67,4.16c-2.53,2.25-5.07,4.49-7.59,6.74-5.29-13.09-8.86-26.91-9.29-41.07A59.64,59.64,0,0,1,543,43.15Z"/><path class="cls-1" d="M528.09,120.65l.35-.14c.1-.06,0,0-.66.23l.17,0Z"/></svg>