<svg width="667" height="157" viewBox="0 0 667 157" fill="none" xmlns="http://www.w3.org/2000/svg">
<path d="M21.736 120.272C6.328 120.272 8.344 111.056 11.224 104.144L41.464 31.856C42.328 29.696 48.952 29.984 47.944 32.432L17.128 106.016C13.816 113.792 14.392 117.68 22.888 117.68C38.44 117.68 56.728 105.296 65.224 95.072H61.624C54.712 95.072 47.944 94.208 42.76 93.056C42.472 92.912 42.472 92.48 42.616 92.048C42.76 91.616 43.192 91.184 43.624 91.184C48.808 92.192 55 92.768 61.624 92.768C63.352 92.768 65.224 92.768 66.952 92.624C68.824 89.888 69.976 87.44 69.976 85.568C69.976 79.664 62.344 81.392 55.864 81.392C47.944 81.392 40.6 80.096 40.312 72.896C39.88 62.816 58.6 61.376 95.32 45.968C131.752 30.56 143.56 20.624 143.56 11.552C143.56 2.47999 109.72 5.07199 78.184 12.56C40.744 21.488 15.544 32.864 1.864 39.2C1.288 39.488 0.856 38.192 1.288 38.048C11.224 31.856 75.304 0.751999 120.808 0.751999C135.352 0.751999 146.152 2.47999 146.152 11.552C146.152 24.08 130.6 38.624 97.768 51.728C64.936 64.832 42.616 64.832 42.904 72.608C43.048 75.92 46.504 76.928 56.008 76.928C68.968 76.928 72.712 78.224 72.424 86.144C72.28 88.304 71.992 90.32 71.416 92.336C82.792 91.472 94.168 88.736 102.664 84.272L103.816 86.288C94.744 91.184 82.648 93.92 70.552 94.784C64.936 108.32 47.224 120.272 21.736 120.272ZM117.052 69.152C114.46 69.152 112.3 66.992 112.3 64.4C112.3 61.808 114.46 59.648 117.052 59.648C119.644 59.648 121.804 61.808 121.804 64.4C121.804 66.992 119.644 69.152 117.052 69.152ZM105.964 104C101.788 104 99.0516 101.408 100.78 97.376L105.1 87.008C105.388 86.288 104.668 85.856 103.804 86.288C103.228 86.576 102.652 86.576 102.22 85.856C101.932 85.28 102.076 84.56 102.652 84.272L107.548 81.68C108.7 81.104 109.564 80.96 110.428 80.96C112.156 80.96 113.596 81.968 112.444 84.704L107.404 96.8C106.396 99.392 105.82 101.12 109.564 101.12C116.62 101.12 138.22 89.168 147.58 84.128C148.012 83.84 148.588 84.128 148.876 84.704C149.164 85.136 149.164 85.856 148.732 86.144C132.316 94.928 115.756 104 105.964 104ZM145.07 104C143.918 104 142.766 103.568 143.486 101.84C143.774 101.264 144.782 98.96 149.678 87.008C149.966 86.288 149.246 85.856 148.382 86.288C147.806 86.576 147.23 86.576 146.798 85.856C146.51 85.28 146.654 84.56 147.23 84.272L152.126 81.68C153.278 81.104 154.142 80.96 155.006 80.96C156.734 80.96 158.174 81.968 157.022 84.704L155.87 87.44C158.174 85.28 160.334 83.264 162.494 81.536C162.638 76.784 166.958 70.448 170.702 70.448C171.854 70.448 172.286 71.024 172.286 72.32C172.286 75.344 167.822 79.664 164.798 82.688C165.23 86.432 168.686 89.312 177.038 89.312C183.518 89.312 194.03 86.864 199.07 84.128C199.502 83.84 200.078 84.128 200.366 84.704C200.654 85.136 200.654 85.856 200.222 86.144C194.894 89.024 183.806 91.616 177.038 91.616C168.254 91.616 164.078 88.592 162.782 84.56C160.766 86.576 158.03 89.168 158.03 89.168C154.286 92.768 151.55 97.808 151.118 98.816L150.11 101.264C149.246 103.28 147.23 104 145.07 104ZM202.295 104C200.855 104 200.423 103.136 200.423 102.128C200.423 97.808 196.103 89.888 189.911 84.848L187.607 83.408C187.175 83.12 186.599 82.688 186.599 82.4C186.599 81.824 188.183 80.528 188.759 80.96L190.919 82.544C192.215 83.408 194.087 84.56 196.391 85.568C203.015 82.4 207.047 78.944 210.935 74.912C213.815 68.144 217.271 60.944 220.871 54.896C223.175 51.008 224.183 49.712 225.479 49.712C226.775 49.712 227.207 51.44 225.767 55.04C215.255 80.096 213.383 85.136 211.511 89.456C225.911 90.32 245.639 81.536 251.831 75.92C252.119 75.632 252.839 75.776 253.271 76.208C253.847 76.784 253.703 77.36 253.271 77.648C244.343 85.424 223.031 92.768 210.647 91.616C208.631 96.512 206.615 101.264 206.039 102.416C205.607 103.424 204.455 104 202.295 104ZM205.319 88.448L208.631 80.24C205.895 82.688 203.159 84.704 199.271 86.72C200.855 87.296 203.159 88.016 205.319 88.448ZM202.007 97.664L204.599 90.608C201.431 89.888 198.695 88.88 196.391 88.016C198.983 91.184 200.999 94.64 202.007 97.664ZM242.305 104C241.009 104 240.001 103.424 240.721 101.84L251.521 76.064C262.177 50.432 272.545 44.096 276.001 44.096C278.305 44.096 278.593 45.68 278.593 46.976C278.593 52.736 269.233 63.248 259.153 72.896L251.377 91.616C254.545 87.728 261.313 80.96 266.353 80.96C268.657 80.96 270.673 82.4 268.513 87.44L264.625 96.8C263.473 99.536 263.473 101.12 266.785 101.12C272.833 101.12 294.289 93.488 304.945 89.456C305.377 89.312 305.953 89.6 306.097 90.176C306.241 90.752 306.241 91.184 305.809 91.472C288.097 97.952 271.537 104 263.185 104C259.009 104 256.417 101.264 258.001 97.376L262.177 87.44C262.753 86.144 261.457 85.856 259.729 87.152C256.129 89.888 251.233 94.496 247.345 101.264C246.193 103.28 244.465 104 242.305 104ZM261.313 67.712C269.089 59.792 276.145 51.296 276.145 47.264C276.145 46.976 276.145 46.256 275.281 46.256C273.553 46.256 269.377 49.856 261.313 67.712ZM302.687 104C299.231 104 297.359 102.128 297.359 98.816C297.359 91.328 306.143 80.96 315.215 80.96C317.231 80.96 319.247 81.536 320.687 82.544L333.503 54.464C335.087 50.864 336.815 49.712 338.255 49.712C340.703 49.712 339.551 53.024 338.687 55.04L321.983 94.928C319.823 99.968 322.415 101.264 324.431 101.264C329.471 101.264 350.063 93.776 361.439 89.456C361.871 89.312 362.447 89.6 362.591 90.176C362.735 90.608 362.735 91.184 362.303 91.472C349.631 96.512 328.895 104 323.135 104C314.063 104 314.351 98.096 316.223 93.056C312.047 98.384 306.719 104 302.687 104ZM305.567 99.68C308.303 99.68 316.367 90.608 319.247 85.28C318.815 84.56 317.807 83.264 315.935 83.264C310.175 83.264 304.271 93.632 304.271 98.096C304.271 99.68 304.847 99.68 305.567 99.68ZM359.506 104C356.05 104 354.178 102.128 354.178 98.816C354.178 91.328 362.386 80.96 371.026 80.96C373.762 80.96 376.354 82.112 377.65 83.552C377.65 83.552 378.37 83.408 378.802 83.408C381.826 83.408 381.826 85.712 380.962 87.728L377.506 95.936C375.778 99.968 377.506 101.264 379.234 101.264C384.994 101.264 401.41 92.336 409.618 87.872L416.674 84.128C417.106 83.84 417.682 84.128 417.97 84.704C418.258 85.136 418.258 85.856 417.826 86.144L410.77 89.888C396.946 97.232 384.13 104 377.65 104C370.738 104 369.01 99.68 370.594 95.792C366.994 100.112 362.818 104 359.506 104ZM362.674 99.68C365.41 99.68 372.61 91.472 375.346 85.28C375.346 85.28 374.05 83.264 371.746 83.264C367.426 83.264 361.09 93.488 361.09 97.952C361.09 99.536 361.954 99.68 362.674 99.68ZM398.674 156.992C396.082 156.992 394.642 154.688 394.642 151.52C394.642 142.592 403.714 129.344 417.394 118.256C419.266 116.672 421.426 115.088 423.73 113.648L433.234 90.176C430.786 94.064 423.586 104 418.114 104C414.514 104 412.786 101.408 414.514 97.376L418.834 87.008C419.122 86.288 418.402 85.856 417.538 86.288C416.962 86.576 416.386 86.576 415.954 85.856C415.666 85.28 415.81 84.56 416.386 84.272L421.282 81.68C422.434 81.104 423.298 80.96 424.162 80.96C425.89 80.96 427.33 81.968 426.178 84.704L421.138 96.8C420.706 97.808 421.426 98.24 421.858 98.24C424.162 98.24 429.058 91.904 435.106 84.128C437.122 81.536 438.418 80.96 439.282 80.96C441.01 80.96 443.026 81.968 440.722 87.44L431.938 108.608C444.322 101.408 458.29 95.072 467.218 91.184C467.65 91.04 468.082 91.328 468.226 91.76C468.37 92.192 468.226 92.624 467.794 92.912C458.578 97.088 442.738 105.008 430.066 112.928C420.994 134.96 410.914 156.992 398.674 156.992ZM398.962 154.832C405.01 154.832 415.09 136.112 422.002 118.112C411.346 125.744 397.09 145.328 397.09 152.384C397.09 153.392 397.522 154.832 398.962 154.832ZM508.333 120.272C495.517 120.272 489.757 111.92 489.757 99.248C489.757 61.952 529.645 19.328 549.661 19.328C555.565 19.328 557.725 22.784 557.725 27.248C557.725 40.64 542.605 52.736 533.389 58.496C532.813 58.928 531.661 57.776 532.381 57.2C532.669 57.056 554.557 35.168 554.557 25.376C554.557 23.216 553.549 21.776 551.245 21.776C535.837 21.776 494.653 70.304 494.653 102.128C494.653 110.768 498.253 117.248 506.605 117.248C518.989 117.248 532.525 108.176 544.333 95.072C537.853 95.072 531.517 94.208 526.621 93.056C526.333 92.912 526.333 92.48 526.477 92.048C526.621 91.616 527.053 91.184 527.485 91.184C532.669 92.192 538.861 92.768 546.349 92.768C564.205 72.032 577.885 42.656 577.885 23.216C577.885 8.096 570.829 5.79199 561.469 5.79199C534.397 5.79199 510.781 16.88 497.389 24.368C496.813 24.656 496.525 23.504 496.813 23.36C504.589 17.024 529.213 0.751999 554.989 0.751999C571.117 0.751999 583.213 8.67199 583.213 27.968C583.213 48.56 571.549 73.616 555.421 92.336C566.797 91.328 578.029 88.736 586.525 84.272L587.677 86.288C578.317 91.328 565.645 94.064 553.261 94.784C539.725 109.76 523.453 120.272 508.333 120.272ZM600.97 69.152C598.378 69.152 596.218 66.992 596.218 64.4C596.218 61.808 598.378 59.648 600.97 59.648C603.562 59.648 605.722 61.808 605.722 64.4C605.722 66.992 603.562 69.152 600.97 69.152ZM589.882 104C585.706 104 582.97 101.408 584.698 97.376L589.018 87.008C589.306 86.288 588.586 85.856 587.722 86.288C587.146 86.576 586.57 86.576 586.138 85.856C585.85 85.28 585.994 84.56 586.57 84.272L591.466 81.68C592.618 81.104 593.482 80.96 594.346 80.96C596.074 80.96 597.514 81.968 596.362 84.704L591.322 96.8C590.314 99.392 589.738 101.12 593.482 101.12C600.538 101.12 622.138 89.168 631.498 84.128C631.93 83.84 632.506 84.128 632.794 84.704C633.082 85.136 633.082 85.856 632.65 86.144C616.234 94.928 599.674 104 589.882 104ZM635.901 104C626.109 104 625.245 98.672 628.413 90.896L632.589 80.96C642.957 56.048 653.325 49.712 656.781 49.712C659.085 49.712 659.373 51.296 659.373 52.592C659.373 58.64 650.445 73.76 638.205 82.688L633.597 93.632C631.149 99.392 633.165 101.696 635.901 101.696C643.965 101.696 654.909 96.224 665.277 88.736C665.709 88.448 666.141 88.88 666.285 89.312C666.429 89.744 666.285 90.176 665.853 90.464C655.197 98.096 644.253 104 635.901 104ZM639.933 78.512C649.149 70.448 656.925 57.344 656.925 52.88C656.925 52.592 656.925 51.872 656.061 51.872C654.189 51.872 649.869 55.328 639.933 78.512Z" fill="#707070" fill-opacity="0.3"/>
</svg>
