<svg width="770" height="251" viewBox="0 0 770 251" fill="none" xmlns="http://www.w3.org/2000/svg">
<path d="M19.1646 120.272C6.34863 120.272 0.588625 111.92 0.588625 99.248C0.588625 61.952 40.4766 19.328 60.4926 19.328C66.3966 19.328 68.5566 22.784 68.5566 27.248C68.5566 40.64 53.4366 52.736 44.2206 58.496C43.6446 58.928 42.4926 57.776 43.2126 57.2C43.5006 57.056 65.3886 35.168 65.3886 25.376C65.3886 23.216 64.3806 21.776 62.0766 21.776C46.6686 21.776 5.48463 70.304 5.48463 102.128C5.48463 110.768 9.08463 117.248 17.4366 117.248C29.8206 117.248 43.3566 108.176 55.1646 95.072C48.6846 95.072 42.3486 94.208 37.4526 93.056C37.1646 92.912 37.1646 92.48 37.3086 92.048C37.4526 91.616 37.8846 91.184 38.3166 91.184C43.5006 92.192 49.6926 92.768 57.1806 92.768C75.0366 72.032 88.7166 42.656 88.7166 23.216C88.7166 8.096 81.6606 5.79199 72.3006 5.79199C45.2286 5.79199 21.6126 16.88 8.22063 24.368C7.64462 24.656 7.35663 23.504 7.64462 23.36C15.4206 17.024 40.0446 0.751999 65.8206 0.751999C81.9486 0.751999 94.0446 8.67199 94.0446 27.968C94.0446 48.56 82.3806 73.616 66.2526 92.336C77.6286 91.328 88.8606 88.736 97.3566 84.272L98.5086 86.288C89.1486 91.328 76.4766 94.064 64.0926 94.784C50.5566 109.76 34.2846 120.272 19.1646 120.272ZM95.2416 104C94.0896 104 92.9376 103.568 93.6576 101.84C93.9456 101.264 94.9536 98.96 99.8496 87.008C100.138 86.288 99.4176 85.856 98.5536 86.288C97.9776 86.576 97.4016 86.576 96.9696 85.856C96.6816 85.28 96.8256 84.56 97.4016 84.272L102.298 81.68C103.45 81.104 104.314 80.96 105.178 80.96C106.906 80.96 108.346 81.968 107.194 84.704L106.042 87.44C108.346 85.28 110.506 83.264 112.666 81.536C112.81 76.784 117.13 70.448 120.874 70.448C122.026 70.448 122.458 71.024 122.458 72.32C122.458 75.344 117.994 79.664 114.97 82.688C115.402 86.432 118.858 89.312 127.21 89.312C133.69 89.312 144.202 86.864 149.242 84.128C149.674 83.84 150.25 84.128 150.538 84.704C150.826 85.136 150.826 85.856 150.394 86.144C145.066 89.024 133.978 91.616 127.21 91.616C118.426 91.616 114.25 88.592 112.954 84.56C110.938 86.576 108.202 89.168 108.202 89.168C104.458 92.768 101.722 97.808 101.29 98.816L100.282 101.264C99.4176 103.28 97.4016 104 95.2416 104ZM126.259 156.992C123.667 156.848 122.227 154.688 122.227 151.52C122.227 142.592 131.299 129.344 144.979 118.256C147.427 116.24 151.459 113.216 151.459 113.216L159.811 92.336C155.779 97.808 149.875 104 145.843 104C142.387 104 140.515 102.128 140.515 98.816C140.515 91.328 149.299 80.96 158.371 80.96C161.107 80.96 163.699 81.968 164.995 83.552C165.139 83.552 165.859 83.408 166.291 83.408C169.027 83.408 169.027 85.568 167.875 88.304L159.811 107.6C171.763 100.256 183.571 95.936 200.851 89.456C201.283 89.312 201.859 89.6 202.003 90.176C202.147 90.752 202.147 91.184 201.715 91.472C182.851 98.384 170.611 103.424 157.939 111.92C148.723 134.672 138.643 156.992 126.259 156.992ZM148.723 99.68C150.739 99.68 159.523 90.608 162.403 85.28C161.971 84.56 160.963 83.264 159.091 83.264C153.331 83.264 147.427 93.632 147.427 98.096C147.427 99.68 148.003 99.68 148.723 99.68ZM126.547 154.832C132.595 154.832 142.675 136.112 149.587 118.112C138.931 125.744 124.675 145.328 124.675 152.384C124.675 153.392 125.107 154.832 126.547 154.832ZM199.006 104C195.55 104 193.678 102.128 193.678 98.816C193.678 91.328 201.886 80.96 210.526 80.96C213.262 80.96 215.854 82.112 217.15 83.552C217.15 83.552 217.87 83.408 218.302 83.408C221.326 83.408 221.326 85.712 220.462 87.728L217.006 95.936C215.278 99.968 217.006 101.264 218.734 101.264C224.494 101.264 240.91 92.336 249.118 87.872L256.174 84.128C256.606 83.84 257.182 84.128 257.47 84.704C257.758 85.136 257.758 85.856 257.326 86.144L250.27 89.888C236.446 97.232 223.63 104 217.15 104C210.238 104 208.51 99.68 210.094 95.792C206.494 100.112 202.318 104 199.006 104ZM202.174 99.68C204.91 99.68 212.11 91.472 214.846 85.28C214.846 85.28 213.55 83.264 211.246 83.264C206.926 83.264 200.59 93.488 200.59 97.952C200.59 99.536 201.454 99.68 202.174 99.68ZM253.726 104C252.574 104 251.422 103.568 252.142 101.84L258.334 87.008C258.622 86.288 257.902 85.856 257.038 86.288C256.462 86.576 255.886 86.576 255.454 85.856C255.166 85.28 255.31 84.56 255.886 84.272L260.782 81.68C261.934 81.104 262.798 80.96 263.662 80.96C265.39 80.96 266.83 81.968 265.678 84.704L262.798 91.616C265.966 87.728 272.734 80.96 277.774 80.96C280.078 80.96 282.094 82.4 279.934 87.44L276.046 96.8C275.038 99.248 274.606 101.12 278.206 101.12C285.262 101.12 307.726 88.88 316.366 84.128C316.798 83.84 317.374 84.128 317.662 84.704C317.95 85.136 317.95 85.856 317.518 86.144C301.102 94.928 284.398 104 274.606 104C270.43 104 267.694 101.408 269.422 97.376L273.598 87.44C274.318 85.712 272.302 86.288 271.15 87.152C267.55 89.888 262.654 94.496 258.766 101.264C257.758 103.136 255.886 104 253.726 104ZM330.474 69.152C327.882 69.152 325.722 66.992 325.722 64.4C325.722 61.808 327.882 59.648 330.474 59.648C333.066 59.648 335.226 61.808 335.226 64.4C335.226 66.992 333.066 69.152 330.474 69.152ZM319.386 104C315.209 104 312.473 101.408 314.201 97.376L318.522 87.008C318.81 86.288 318.09 85.856 317.226 86.288C316.649 86.576 316.073 86.576 315.641 85.856C315.353 85.28 315.497 84.56 316.073 84.272L320.97 81.68C322.122 81.104 322.986 80.96 323.85 80.96C325.578 80.96 327.018 81.968 325.866 84.704L320.826 96.8C319.818 99.104 319.386 101.12 322.986 101.12C328.89 101.12 351.066 93.2 361.146 89.456C361.578 89.312 362.154 89.6 362.298 90.176C362.442 90.752 362.442 91.184 362.01 91.472C344.298 97.952 327.738 104 319.386 104ZM363.21 104C358.026 104 355.146 100.688 355.146 96.368C355.146 89.6 361.914 80.96 371.418 80.96C374.298 80.96 376.458 82.256 377.178 84.128C377.322 84.56 377.322 84.992 376.458 85.568C375.882 85.856 375.45 85.856 375.162 85.424C374.154 83.552 373.29 83.264 371.706 83.264C366.81 83.264 361.914 91.328 361.914 96.656C361.914 99.248 363.066 101.264 365.514 101.264C373.722 101.264 386.826 95.072 397.05 88.736C397.482 88.448 397.914 88.88 398.058 89.312C398.202 89.744 398.058 90.176 397.626 90.464C378.762 102.56 368.826 104 363.21 104ZM472.675 120.272C456.259 120.272 449.635 109.04 450.499 92.336C452.947 42.368 508.963 2.47999 545.827 0.895997C559.075 0.319996 569.011 3.488 569.011 13.136C569.011 29.12 545.395 48.848 509.539 48.848C508.675 48.848 509.107 46.688 509.971 46.688C536.179 45.68 566.131 24.656 566.131 11.984C566.131 6.51199 560.803 4.208 547.699 4.784C514.291 6.224 458.131 49.28 455.971 96.08C455.395 107.024 458.851 117.392 470.371 117.392C478.291 117.392 489.235 111.488 496.723 105.008C498.739 103.28 504.211 104.864 503.203 106.304C496.723 115.376 483.331 120.272 472.675 120.272ZM525.344 104C519.872 104 517.136 101.12 517.424 96.8C517.856 90.032 524.48 80.96 533.984 80.96C538.016 80.96 540.176 83.408 540.176 87.152C540.176 88.592 539.888 89.6 539.6 90.608C541.472 91.472 543.776 91.904 546.8 91.904C552.56 91.904 560.192 90.464 572.144 84.128C572.576 83.84 573.152 84.128 573.44 84.704C573.728 85.136 573.728 85.856 573.296 86.144C560.768 92.768 552.848 94.208 546.8 94.208C543.488 94.208 540.896 93.632 538.736 92.768C536.288 98.24 531.104 104 525.344 104ZM526.784 101.552C529.376 101.552 534.128 96.656 536.144 91.184C535.136 90.464 533.552 89.024 533.552 87.44C533.552 86 534.848 84.704 536.288 84.704C536 83.84 535.28 83.264 534.128 83.264C529.232 83.264 524.048 91.328 523.76 96.656C523.616 99.248 524.192 101.552 526.784 101.552ZM575.326 104C573.886 104 573.454 103.136 573.454 102.128C573.454 97.808 569.134 89.888 562.942 84.848L560.638 83.408C560.206 83.12 559.63 82.688 559.63 82.4C559.63 81.824 561.214 80.528 561.79 80.96L563.95 82.544C565.246 83.408 567.118 84.56 569.566 85.568C576.19 82.112 580.222 78.944 583.822 75.056C586.846 68 590.302 60.944 593.902 54.896C596.206 51.008 597.214 49.712 598.51 49.712C599.806 49.712 600.238 51.44 598.798 55.04L584.398 89.744C586.99 90.176 589.582 90.32 592.462 90.32C601.822 90.32 613.342 88.304 621.118 84.128C621.55 83.84 622.126 84.128 622.414 84.704C622.702 85.136 622.702 85.856 622.27 86.144C614.206 90.608 602.11 92.624 592.462 92.624C589.294 92.624 586.414 92.336 583.534 91.904C581.518 96.656 579.646 101.264 579.07 102.416C578.638 103.424 577.486 104 575.326 104ZM578.35 88.592L581.806 80.096C579.07 82.544 576.19 84.704 572.302 86.72C573.742 87.296 576.046 88.016 578.35 88.592ZM575.038 97.664C575.758 95.504 577.63 90.608 577.63 90.608C574.462 89.888 571.726 88.88 569.422 88.016C572.014 91.184 574.03 94.64 575.038 97.664ZM624.264 104C622.824 104 622.392 103.136 622.392 102.128C622.392 97.808 618.072 89.888 611.88 84.848L609.576 83.408C609.144 83.12 608.568 82.688 608.568 82.4C608.568 81.824 610.152 80.528 610.728 80.96L612.888 82.544C614.184 83.408 616.056 84.56 618.504 85.568C625.128 82.112 629.16 78.944 632.76 75.056C635.784 68 639.24 60.944 642.84 54.896C645.144 51.008 646.152 49.712 647.448 49.712C648.744 49.712 649.176 51.44 647.736 55.04L633.336 89.744C635.928 90.176 638.52 90.32 641.4 90.32C650.76 90.32 662.28 88.304 670.056 84.128C670.488 83.84 671.064 84.128 671.352 84.704C671.64 85.136 671.64 85.856 671.208 86.144C663.144 90.608 651.048 92.624 641.4 92.624C638.232 92.624 635.352 92.336 632.472 91.904C630.456 96.656 628.584 101.264 628.008 102.416C627.576 103.424 626.424 104 624.264 104ZM627.288 88.592L630.744 80.096C628.008 82.544 625.128 84.704 621.24 86.72C622.68 87.296 624.984 88.016 627.288 88.592ZM623.976 97.664C624.696 95.504 626.568 90.608 626.568 90.608C623.4 89.888 620.664 88.88 618.36 88.016C620.952 91.184 622.968 94.64 623.976 97.664ZM670.609 104C665.137 104 662.401 101.12 662.689 96.8C663.121 90.032 669.745 80.96 679.249 80.96C683.281 80.96 685.441 83.408 685.441 87.152C685.441 88.592 685.153 89.6 684.865 90.608C686.737 91.472 689.041 91.904 692.065 91.904C697.825 91.904 705.457 90.464 717.409 84.128C717.841 83.84 718.417 84.128 718.705 84.704C718.993 85.136 718.993 85.856 718.561 86.144C706.033 92.768 698.113 94.208 692.065 94.208C688.753 94.208 686.161 93.632 684.001 92.768C681.553 98.24 676.369 104 670.609 104ZM672.049 101.552C674.641 101.552 679.393 96.656 681.409 91.184C680.401 90.464 678.817 89.024 678.817 87.44C678.817 86 680.113 84.704 681.553 84.704C681.265 83.84 680.545 83.264 679.393 83.264C674.497 83.264 669.313 91.328 669.025 96.656C668.881 99.248 669.457 101.552 672.049 101.552ZM714.976 104C713.824 104 712.672 103.568 713.392 101.84L719.584 87.008C719.872 86.288 719.152 85.856 718.288 86.288C717.712 86.576 717.136 86.576 716.704 85.856C716.416 85.28 716.56 84.56 717.136 84.272L722.032 81.68C723.184 81.104 724.048 80.96 724.912 80.96C726.64 80.96 728.08 81.968 726.928 84.704L724.048 91.616C727.216 87.728 733.984 80.96 739.024 80.96C741.328 80.96 743.344 82.4 741.184 87.44L737.296 96.8C736.144 99.536 736.144 101.12 739.312 101.12C745.504 101.12 761.344 93.2 768.832 88.736C769.264 88.448 769.696 88.88 769.84 89.312C769.984 89.744 769.84 90.176 769.408 90.464C769.408 90.464 747.808 104 735.856 104C731.536 104 729.088 101.264 730.672 97.376L734.848 87.44C735.568 85.712 733.552 86.288 732.4 87.152C728.8 89.888 723.904 94.496 720.016 101.264C719.008 103.136 717.136 104 714.976 104ZM200.564 250.272C185.156 250.272 187.172 241.056 190.052 234.144L220.292 161.856C221.156 159.696 227.78 159.984 226.772 162.432L195.956 236.016C192.644 243.792 193.22 247.68 201.716 247.68C217.268 247.68 235.556 235.296 244.052 225.072H240.452C233.54 225.072 226.772 224.208 221.588 223.056C221.3 222.912 221.3 222.48 221.444 222.048C221.588 221.616 222.02 221.184 222.452 221.184C227.636 222.192 233.828 222.768 240.452 222.768C242.18 222.768 244.052 222.768 245.78 222.624C247.652 219.888 248.804 217.44 248.804 215.568C248.804 209.664 241.172 211.392 234.692 211.392C226.772 211.392 219.428 210.096 219.14 202.896C218.708 192.816 237.428 191.376 274.148 175.968C310.58 160.56 322.388 150.624 322.388 141.552C322.388 132.48 288.548 135.072 257.012 142.56C219.572 151.488 194.372 162.864 180.692 169.2C180.116 169.488 179.684 168.192 180.116 168.048C190.052 161.856 254.132 130.752 299.636 130.752C314.18 130.752 324.98 132.48 324.98 141.552C324.98 154.08 309.428 168.624 276.596 181.728C243.764 194.832 221.444 194.832 221.732 202.608C221.876 205.92 225.332 206.928 234.836 206.928C247.796 206.928 251.54 208.224 251.252 216.144C251.108 218.304 250.82 220.32 250.244 222.336C261.62 221.472 272.996 218.736 281.492 214.272L282.644 216.288C273.572 221.184 261.476 223.92 249.38 224.784C243.764 238.32 226.052 250.272 200.564 250.272ZM279.32 234C278.168 234 277.016 233.568 277.736 231.84C278.024 231.264 279.032 228.96 283.928 217.008C284.216 216.288 283.496 215.856 282.632 216.288C282.056 216.576 281.48 216.576 281.048 215.856C280.76 215.28 280.904 214.56 281.48 214.272L286.376 211.68C287.528 211.104 288.392 210.96 289.256 210.96C290.984 210.96 292.424 211.968 291.272 214.704L290.12 217.44C292.424 215.28 294.584 213.264 296.744 211.536C296.888 206.784 301.208 200.448 304.952 200.448C306.104 200.448 306.536 201.024 306.536 202.32C306.536 205.344 302.072 209.664 299.048 212.688C299.48 216.432 302.936 219.312 311.288 219.312C317.768 219.312 328.28 216.864 333.32 214.128C333.752 213.84 334.328 214.128 334.616 214.704C334.904 215.136 334.904 215.856 334.472 216.144C329.144 219.024 318.056 221.616 311.288 221.616C302.504 221.616 298.328 218.592 297.032 214.56C295.016 216.576 292.28 219.168 292.28 219.168C288.536 222.768 285.8 227.808 285.368 228.816L284.36 231.264C283.496 233.28 281.48 234 279.32 234ZM330.209 234C326.753 234 324.881 232.128 324.881 228.816C324.881 221.328 333.089 210.96 341.729 210.96C344.465 210.96 347.057 212.112 348.353 213.552C348.353 213.552 349.073 213.408 349.505 213.408C352.529 213.408 352.529 215.712 351.665 217.728L348.209 225.936C346.481 229.968 348.209 231.264 349.937 231.264C357.281 231.264 373.409 222.768 380.177 218.736C380.609 218.448 381.041 218.88 381.185 219.312C381.329 219.744 381.185 220.176 380.753 220.464C365.921 229.824 352.529 234 348.353 234C341.441 234 339.713 229.68 341.297 225.792C337.697 230.112 333.521 234 330.209 234ZM333.377 229.68C336.113 229.68 343.313 221.472 346.049 215.28C346.049 215.28 344.753 213.264 342.449 213.264C338.129 213.264 331.793 223.488 331.793 227.952C331.793 229.536 332.657 229.68 333.377 229.68ZM396.129 250.272C391.809 250.272 389.217 248.112 389.217 243.36C389.217 236.016 393.825 229.248 400.449 222.48C404.193 218.592 407.361 216.288 407.361 215.424C407.361 214.848 407.073 214.56 406.353 214.56C404.625 214.56 402.033 216.144 398.433 216.144C390.081 216.144 386.769 212.544 386.769 206.928C386.769 193.536 413.553 174.096 443.073 174.096C452.433 174.096 457.473 176.832 457.473 182.304C457.473 192.24 438.753 201.312 423.633 201.312C422.913 201.312 423.345 199.296 424.209 199.296C432.561 199.008 454.593 188.496 454.593 181.296C454.593 178.848 452.145 177.552 445.089 177.552C427.953 177.552 389.505 196.848 389.505 207.216C389.505 210.816 392.097 211.392 394.257 211.392C399.297 211.392 401.312 210.96 405.345 211.248C408.081 211.392 410.385 212.688 410.385 215.136C410.385 222.192 392.961 235.44 392.961 244.512C392.961 247.392 394.977 247.536 396.417 247.536C403.617 247.536 413.121 238.752 417.585 232.416C421.328 227.232 423.057 222.768 421.185 222.192C419.025 222.912 416.865 223.632 415.569 223.92C412.833 224.496 413.409 219.888 414.849 219.168C416.001 218.592 419.745 218.448 420.753 218.592C432.849 214.416 435.441 212.4 442.785 212.4C446.529 212.4 449.121 213.552 451.857 215.424C452.145 215.568 452.289 216.72 451.281 216.72C440.049 216.432 437.889 216.72 424.497 221.184C426.081 224.352 425.217 229.68 422.625 233.856C417.153 242.496 406.929 250.272 396.129 250.272ZM468.999 250.272C454.743 250.272 461.367 233.712 466.839 227.232C472.455 220.464 477.927 215.424 484.839 211.104C485.415 210.672 486.855 211.68 486.423 212.112C486.423 212.112 480.231 218.736 472.311 228.24C463.815 238.464 461.511 247.392 467.415 247.392C473.031 247.392 486.423 236.592 497.511 224.928C494.199 224.496 490.887 224.064 487.719 223.2C487.431 223.056 487.431 222.624 487.575 222.192C487.719 221.76 488.151 221.328 488.583 221.328C492.039 221.904 495.783 222.48 499.527 222.768C508.023 213.408 514.791 203.904 514.791 198.72C514.791 195.84 513.495 193.104 507.735 193.104C500.679 193.104 487.863 199.44 475.623 199.44C465.975 199.44 459.639 194.544 459.639 188.064C459.639 165.6 511.911 130.752 564.471 130.752C575.991 130.752 587.655 133.488 587.655 143.28C587.655 156.816 561.591 179.712 523.431 179.712C522.567 179.712 522.999 177.552 523.863 177.552C549.495 176.544 584.775 154.656 584.775 141.984C584.775 135.792 575.703 134.784 563.895 134.784C527.751 134.784 462.663 171.216 462.663 188.352C462.663 192.528 467.271 193.824 469.863 193.824C480.519 193.824 490.311 189.792 505.287 189.792C515.223 189.792 518.391 194.256 518.391 200.88C518.391 207.504 514.359 215.28 508.455 222.768C520.695 222.048 532.791 217.44 545.319 205.92L546.759 207.648C533.079 220.176 519.975 224.928 506.439 225.216C495.063 238.608 478.359 250.272 468.999 250.272ZM535.883 234C534.587 234 533.579 233.424 534.299 231.84L545.099 206.064C555.755 180.432 566.123 174.096 569.579 174.096C571.883 174.096 572.171 175.68 572.171 176.976C572.171 182.736 562.811 193.248 552.731 202.896L544.955 221.616C548.123 217.728 554.891 210.96 559.931 210.96C562.235 210.96 564.251 212.4 562.091 217.44L558.203 226.8C557.051 229.536 557.051 231.12 560.363 231.12C566.411 231.12 587.867 223.488 598.523 219.456C598.955 219.312 599.531 219.6 599.675 220.176C599.819 220.752 599.819 221.184 599.387 221.472C581.675 227.952 565.115 234 556.763 234C552.587 234 549.995 231.264 551.579 227.376L555.755 217.44C556.331 216.144 555.035 215.856 553.307 217.152C549.707 219.888 544.811 224.496 540.923 231.264C539.771 233.28 538.043 234 535.883 234ZM554.891 197.712C562.667 189.792 569.723 181.296 569.723 177.264C569.723 176.976 569.723 176.256 568.859 176.256C567.131 176.256 562.955 179.856 554.891 197.712ZM600.297 234C594.825 234 592.089 231.12 592.377 226.8C592.809 220.032 599.433 210.96 608.937 210.96C612.969 210.96 615.129 213.408 615.129 217.152C615.129 218.592 614.841 219.6 614.553 220.608C616.425 221.472 618.729 221.904 621.753 221.904C627.513 221.904 635.145 220.464 647.097 214.128C647.529 213.84 648.105 214.128 648.393 214.704C648.681 215.136 648.681 215.856 648.249 216.144C635.721 222.768 627.801 224.208 621.753 224.208C618.441 224.208 615.849 223.632 613.689 222.768C611.241 228.24 606.057 234 600.297 234ZM601.737 231.552C604.329 231.552 609.081 226.656 611.097 221.184C610.089 220.464 608.505 219.024 608.505 217.44C608.505 216 609.801 214.704 611.241 214.704C610.953 213.84 610.233 213.264 609.081 213.264C604.185 213.264 599.001 221.328 598.713 226.656C598.569 229.248 599.145 231.552 601.737 231.552ZM644.663 234C643.511 234 642.359 233.568 643.079 231.84C643.367 231.264 644.375 228.96 649.272 217.008C649.56 216.288 648.84 215.856 647.976 216.288C647.399 216.576 646.823 216.576 646.391 215.856C646.103 215.28 646.247 214.56 646.823 214.272L651.72 211.68C652.872 211.104 653.736 210.96 654.6 210.96C656.328 210.96 657.768 211.968 656.616 214.704L655.464 217.44C657.768 215.28 659.928 213.264 662.088 211.536C662.232 206.784 666.552 200.448 670.296 200.448C671.448 200.448 671.88 201.024 671.88 202.32C671.88 205.344 667.416 209.664 664.392 212.688C664.824 216.432 668.28 219.312 676.632 219.312C683.112 219.312 693.624 216.864 698.664 214.128C699.096 213.84 699.672 214.128 699.96 214.704C700.248 215.136 700.248 215.856 699.816 216.144C694.488 219.024 683.4 221.616 676.632 221.616C667.848 221.616 663.672 218.592 662.376 214.56C660.36 216.576 657.624 219.168 657.624 219.168C653.88 222.768 651.144 227.808 650.712 228.816L649.704 231.264C648.84 233.28 646.823 234 644.663 234ZM701.889 234C700.449 234 700.017 233.136 700.017 232.128C700.017 227.808 695.697 219.888 689.505 214.848L687.201 213.408C686.769 213.12 686.193 212.688 686.193 212.4C686.193 211.824 687.777 210.528 688.353 210.96L690.513 212.544C691.809 213.408 693.681 214.56 696.129 215.568C702.753 212.112 706.785 208.944 710.385 205.056C713.409 198 716.865 190.944 720.465 184.896C722.769 181.008 723.777 179.712 725.073 179.712C726.369 179.712 726.801 181.44 725.361 185.04L710.961 219.744C713.553 220.176 716.145 220.32 719.025 220.32C728.385 220.32 739.905 218.304 747.681 214.128C748.113 213.84 748.689 214.128 748.977 214.704C749.265 215.136 749.265 215.856 748.833 216.144C740.769 220.608 728.673 222.624 719.025 222.624C715.857 222.624 712.977 222.336 710.097 221.904C708.081 226.656 706.209 231.264 705.633 232.416C705.201 233.424 704.049 234 701.889 234ZM704.913 218.592L708.369 210.096C705.633 212.544 702.753 214.704 698.865 216.72C700.305 217.296 702.609 218.016 704.913 218.592ZM701.601 227.664C702.321 225.504 704.193 220.608 704.193 220.608C701.025 219.888 698.289 218.88 695.985 218.016C698.577 221.184 700.593 224.64 701.601 227.664ZM745.354 236.016C738.874 236.016 738.586 232.128 739.882 229.536C740.746 227.808 742.474 227.664 743.338 227.664C744.922 227.664 745.93 228.384 744.634 231.264C743.914 232.704 744.058 234.144 746.074 234.144C749.962 234.144 751.834 228.96 751.978 224.064L752.266 214.272L748.522 216.288C747.946 216.576 747.37 216.576 746.938 215.856C746.65 215.28 746.938 214.56 747.37 214.272L752.41 211.392C752.698 206.784 757.018 200.448 760.618 200.448C761.77 200.448 762.202 201.168 762.202 202.32C762.202 205.632 758.026 210.096 755.29 212.112C755.29 215.424 757.882 218.592 757.882 224.352C757.882 228.24 754.858 236.016 745.354 236.016Z" fill="#707070" fill-opacity="0.3"/>
</svg>
