<svg width="770" height="287" viewBox="0 0 770 287" fill="none" xmlns="http://www.w3.org/2000/svg">
<path d="M19.1646 120.272C6.34863 120.272 0.588625 111.92 0.588625 99.248C0.588625 61.952 40.4766 19.328 60.4926 19.328C66.3966 19.328 68.5566 22.784 68.5566 27.248C68.5566 40.64 53.4366 52.736 44.2206 58.496C43.6446 58.928 42.4926 57.776 43.2126 57.2C43.5006 57.056 65.3886 35.168 65.3886 25.376C65.3886 23.216 64.3806 21.776 62.0766 21.776C46.6686 21.776 5.48463 70.304 5.48463 102.128C5.48463 110.768 9.08463 117.248 17.4366 117.248C29.8206 117.248 43.3566 108.176 55.1646 95.072C48.6846 95.072 42.3486 94.208 37.4526 93.056C37.1646 92.912 37.1646 92.48 37.3086 92.048C37.4526 91.616 37.8846 91.184 38.3166 91.184C43.5006 92.192 49.6926 92.768 57.1806 92.768C75.0366 72.032 88.7166 42.656 88.7166 23.216C88.7166 8.096 81.6606 5.79199 72.3006 5.79199C45.2286 5.79199 21.6126 16.88 8.22063 24.368C7.64462 24.656 7.35663 23.504 7.64462 23.36C15.4206 17.024 40.0446 0.751999 65.8206 0.751999C81.9486 0.751999 94.0446 8.67199 94.0446 27.968C94.0446 48.56 82.3806 73.616 66.2526 92.336C77.6286 91.328 88.8606 88.736 97.3566 84.272L98.5086 86.288C89.1486 91.328 76.4766 94.064 64.0926 94.784C50.5566 109.76 34.2846 120.272 19.1646 120.272ZM95.2416 104C94.0896 104 92.9376 103.568 93.6576 101.84C93.9456 101.264 94.9536 98.96 99.8496 87.008C100.138 86.288 99.4176 85.856 98.5536 86.288C97.9776 86.576 97.4016 86.576 96.9696 85.856C96.6816 85.28 96.8256 84.56 97.4016 84.272L102.298 81.68C103.45 81.104 104.314 80.96 105.178 80.96C106.906 80.96 108.346 81.968 107.194 84.704L106.042 87.44C108.346 85.28 110.506 83.264 112.666 81.536C112.81 76.784 117.13 70.448 120.874 70.448C122.026 70.448 122.458 71.024 122.458 72.32C122.458 75.344 117.994 79.664 114.97 82.688C115.402 86.432 118.858 89.312 127.21 89.312C133.69 89.312 144.202 86.864 149.242 84.128C149.674 83.84 150.25 84.128 150.538 84.704C150.826 85.136 150.826 85.856 150.394 86.144C145.066 89.024 133.978 91.616 127.21 91.616C118.426 91.616 114.25 88.592 112.954 84.56C110.938 86.576 108.202 89.168 108.202 89.168C104.458 92.768 101.722 97.808 101.29 98.816L100.282 101.264C99.4176 103.28 97.4016 104 95.2416 104ZM126.259 156.992C123.667 156.848 122.227 154.688 122.227 151.52C122.227 142.592 131.299 129.344 144.979 118.256C147.427 116.24 151.459 113.216 151.459 113.216L159.811 92.336C155.779 97.808 149.875 104 145.843 104C142.387 104 140.515 102.128 140.515 98.816C140.515 91.328 149.299 80.96 158.371 80.96C161.107 80.96 163.699 81.968 164.995 83.552C165.139 83.552 165.859 83.408 166.291 83.408C169.027 83.408 169.027 85.568 167.875 88.304L159.811 107.6C171.763 100.256 183.571 95.936 200.851 89.456C201.283 89.312 201.859 89.6 202.003 90.176C202.147 90.752 202.147 91.184 201.715 91.472C182.851 98.384 170.611 103.424 157.939 111.92C148.723 134.672 138.643 156.992 126.259 156.992ZM148.723 99.68C150.739 99.68 159.523 90.608 162.403 85.28C161.971 84.56 160.963 83.264 159.091 83.264C153.331 83.264 147.427 93.632 147.427 98.096C147.427 99.68 148.003 99.68 148.723 99.68ZM126.547 154.832C132.595 154.832 142.675 136.112 149.587 118.112C138.931 125.744 124.675 145.328 124.675 152.384C124.675 153.392 125.107 154.832 126.547 154.832ZM199.006 104C195.55 104 193.678 102.128 193.678 98.816C193.678 91.328 201.886 80.96 210.526 80.96C213.262 80.96 215.854 82.112 217.15 83.552C217.15 83.552 217.87 83.408 218.302 83.408C221.326 83.408 221.326 85.712 220.462 87.728L217.006 95.936C215.278 99.968 217.006 101.264 218.734 101.264C224.494 101.264 240.91 92.336 249.118 87.872L256.174 84.128C256.606 83.84 257.182 84.128 257.47 84.704C257.758 85.136 257.758 85.856 257.326 86.144L250.27 89.888C236.446 97.232 223.63 104 217.15 104C210.238 104 208.51 99.68 210.094 95.792C206.494 100.112 202.318 104 199.006 104ZM202.174 99.68C204.91 99.68 212.11 91.472 214.846 85.28C214.846 85.28 213.55 83.264 211.246 83.264C206.926 83.264 200.59 93.488 200.59 97.952C200.59 99.536 201.454 99.68 202.174 99.68ZM253.726 104C252.574 104 251.422 103.568 252.142 101.84L258.334 87.008C258.622 86.288 257.902 85.856 257.038 86.288C256.462 86.576 255.886 86.576 255.454 85.856C255.166 85.28 255.31 84.56 255.886 84.272L260.782 81.68C261.934 81.104 262.798 80.96 263.662 80.96C265.39 80.96 266.83 81.968 265.678 84.704L262.798 91.616C265.966 87.728 272.734 80.96 277.774 80.96C280.078 80.96 282.094 82.4 279.934 87.44L276.046 96.8C275.038 99.248 274.606 101.12 278.206 101.12C285.262 101.12 307.726 88.88 316.366 84.128C316.798 83.84 317.374 84.128 317.662 84.704C317.95 85.136 317.95 85.856 317.518 86.144C301.102 94.928 284.398 104 274.606 104C270.43 104 267.694 101.408 269.422 97.376L273.598 87.44C274.318 85.712 272.302 86.288 271.15 87.152C267.55 89.888 262.654 94.496 258.766 101.264C257.758 103.136 255.886 104 253.726 104ZM330.474 69.152C327.882 69.152 325.722 66.992 325.722 64.4C325.722 61.808 327.882 59.648 330.474 59.648C333.066 59.648 335.226 61.808 335.226 64.4C335.226 66.992 333.066 69.152 330.474 69.152ZM319.386 104C315.209 104 312.473 101.408 314.201 97.376L318.522 87.008C318.81 86.288 318.09 85.856 317.226 86.288C316.649 86.576 316.073 86.576 315.641 85.856C315.353 85.28 315.497 84.56 316.073 84.272L320.97 81.68C322.122 81.104 322.986 80.96 323.85 80.96C325.578 80.96 327.018 81.968 325.866 84.704L320.826 96.8C319.818 99.104 319.386 101.12 322.986 101.12C328.89 101.12 351.066 93.2 361.146 89.456C361.578 89.312 362.154 89.6 362.298 90.176C362.442 90.752 362.442 91.184 362.01 91.472C344.298 97.952 327.738 104 319.386 104ZM363.21 104C358.026 104 355.146 100.688 355.146 96.368C355.146 89.6 361.914 80.96 371.418 80.96C374.298 80.96 376.458 82.256 377.178 84.128C377.322 84.56 377.322 84.992 376.458 85.568C375.882 85.856 375.45 85.856 375.162 85.424C374.154 83.552 373.29 83.264 371.706 83.264C366.81 83.264 361.914 91.328 361.914 96.656C361.914 99.248 363.066 101.264 365.514 101.264C373.722 101.264 386.826 95.072 397.05 88.736C397.482 88.448 397.914 88.88 398.058 89.312C398.202 89.744 398.058 90.176 397.626 90.464C378.762 102.56 368.826 104 363.21 104ZM472.675 120.272C456.259 120.272 449.635 109.04 450.499 92.336C452.947 42.368 508.963 2.47999 545.827 0.895997C559.075 0.319996 569.011 3.488 569.011 13.136C569.011 29.12 545.395 48.848 509.539 48.848C508.675 48.848 509.107 46.688 509.971 46.688C536.179 45.68 566.131 24.656 566.131 11.984C566.131 6.51199 560.803 4.208 547.699 4.784C514.291 6.224 458.131 49.28 455.971 96.08C455.395 107.024 458.851 117.392 470.371 117.392C478.291 117.392 489.235 111.488 496.723 105.008C498.739 103.28 504.211 104.864 503.203 106.304C496.723 115.376 483.331 120.272 472.675 120.272ZM525.344 104C519.872 104 517.136 101.12 517.424 96.8C517.856 90.032 524.48 80.96 533.984 80.96C538.016 80.96 540.176 83.408 540.176 87.152C540.176 88.592 539.888 89.6 539.6 90.608C541.472 91.472 543.776 91.904 546.8 91.904C552.56 91.904 560.192 90.464 572.144 84.128C572.576 83.84 573.152 84.128 573.44 84.704C573.728 85.136 573.728 85.856 573.296 86.144C560.768 92.768 552.848 94.208 546.8 94.208C543.488 94.208 540.896 93.632 538.736 92.768C536.288 98.24 531.104 104 525.344 104ZM526.784 101.552C529.376 101.552 534.128 96.656 536.144 91.184C535.136 90.464 533.552 89.024 533.552 87.44C533.552 86 534.848 84.704 536.288 84.704C536 83.84 535.28 83.264 534.128 83.264C529.232 83.264 524.048 91.328 523.76 96.656C523.616 99.248 524.192 101.552 526.784 101.552ZM575.326 104C573.886 104 573.454 103.136 573.454 102.128C573.454 97.808 569.134 89.888 562.942 84.848L560.638 83.408C560.206 83.12 559.63 82.688 559.63 82.4C559.63 81.824 561.214 80.528 561.79 80.96L563.95 82.544C565.246 83.408 567.118 84.56 569.566 85.568C576.19 82.112 580.222 78.944 583.822 75.056C586.846 68 590.302 60.944 593.902 54.896C596.206 51.008 597.214 49.712 598.51 49.712C599.806 49.712 600.238 51.44 598.798 55.04L584.398 89.744C586.99 90.176 589.582 90.32 592.462 90.32C601.822 90.32 613.342 88.304 621.118 84.128C621.55 83.84 622.126 84.128 622.414 84.704C622.702 85.136 622.702 85.856 622.27 86.144C614.206 90.608 602.11 92.624 592.462 92.624C589.294 92.624 586.414 92.336 583.534 91.904C581.518 96.656 579.646 101.264 579.07 102.416C578.638 103.424 577.486 104 575.326 104ZM578.35 88.592L581.806 80.096C579.07 82.544 576.19 84.704 572.302 86.72C573.742 87.296 576.046 88.016 578.35 88.592ZM575.038 97.664C575.758 95.504 577.63 90.608 577.63 90.608C574.462 89.888 571.726 88.88 569.422 88.016C572.014 91.184 574.03 94.64 575.038 97.664ZM624.264 104C622.824 104 622.392 103.136 622.392 102.128C622.392 97.808 618.072 89.888 611.88 84.848L609.576 83.408C609.144 83.12 608.568 82.688 608.568 82.4C608.568 81.824 610.152 80.528 610.728 80.96L612.888 82.544C614.184 83.408 616.056 84.56 618.504 85.568C625.128 82.112 629.16 78.944 632.76 75.056C635.784 68 639.24 60.944 642.84 54.896C645.144 51.008 646.152 49.712 647.448 49.712C648.744 49.712 649.176 51.44 647.736 55.04L633.336 89.744C635.928 90.176 638.52 90.32 641.4 90.32C650.76 90.32 662.28 88.304 670.056 84.128C670.488 83.84 671.064 84.128 671.352 84.704C671.64 85.136 671.64 85.856 671.208 86.144C663.144 90.608 651.048 92.624 641.4 92.624C638.232 92.624 635.352 92.336 632.472 91.904C630.456 96.656 628.584 101.264 628.008 102.416C627.576 103.424 626.424 104 624.264 104ZM627.288 88.592L630.744 80.096C628.008 82.544 625.128 84.704 621.24 86.72C622.68 87.296 624.984 88.016 627.288 88.592ZM623.976 97.664C624.696 95.504 626.568 90.608 626.568 90.608C623.4 89.888 620.664 88.88 618.36 88.016C620.952 91.184 622.968 94.64 623.976 97.664ZM670.609 104C665.137 104 662.401 101.12 662.689 96.8C663.121 90.032 669.745 80.96 679.249 80.96C683.281 80.96 685.441 83.408 685.441 87.152C685.441 88.592 685.153 89.6 684.865 90.608C686.737 91.472 689.041 91.904 692.065 91.904C697.825 91.904 705.457 90.464 717.409 84.128C717.841 83.84 718.417 84.128 718.705 84.704C718.993 85.136 718.993 85.856 718.561 86.144C706.033 92.768 698.113 94.208 692.065 94.208C688.753 94.208 686.161 93.632 684.001 92.768C681.553 98.24 676.369 104 670.609 104ZM672.049 101.552C674.641 101.552 679.393 96.656 681.409 91.184C680.401 90.464 678.817 89.024 678.817 87.44C678.817 86 680.113 84.704 681.553 84.704C681.265 83.84 680.545 83.264 679.393 83.264C674.497 83.264 669.313 91.328 669.025 96.656C668.881 99.248 669.457 101.552 672.049 101.552ZM714.976 104C713.824 104 712.672 103.568 713.392 101.84L719.584 87.008C719.872 86.288 719.152 85.856 718.288 86.288C717.712 86.576 717.136 86.576 716.704 85.856C716.416 85.28 716.56 84.56 717.136 84.272L722.032 81.68C723.184 81.104 724.048 80.96 724.912 80.96C726.64 80.96 728.08 81.968 726.928 84.704L724.048 91.616C727.216 87.728 733.984 80.96 739.024 80.96C741.328 80.96 743.344 82.4 741.184 87.44L737.296 96.8C736.144 99.536 736.144 101.12 739.312 101.12C745.504 101.12 761.344 93.2 768.832 88.736C769.264 88.448 769.696 88.88 769.84 89.312C769.984 89.744 769.84 90.176 769.408 90.464C769.408 90.464 747.808 104 735.856 104C731.536 104 729.088 101.264 730.672 97.376L734.848 87.44C735.568 85.712 733.552 86.288 732.4 87.152C728.8 89.888 723.904 94.496 720.016 101.264C719.008 103.136 717.136 104 714.976 104ZM440.014 274.176C430.942 274.176 415.39 270.576 395.662 249.12C388.606 241.344 383.422 235.728 379.678 231.84C373.486 238.608 368.59 242.208 362.398 245.952C357.79 248.832 353.47 249.984 350.734 249.984C348.142 249.984 346.846 248.4 346.846 245.952C346.846 237.744 360.382 216.432 367.006 216.432C369.022 216.432 371.902 218.16 378.238 223.632C402.718 187.776 438.286 130.752 477.886 130.752C491.134 130.752 496.75 136.224 496.75 143.28C496.75 156.816 475.438 179.568 437.278 179.568C436.414 179.568 436.846 177.408 437.71 177.408C464.062 176.4 493.87 154.656 493.87 141.984C493.87 137.232 489.118 134.64 480.478 134.64C434.542 134.64 401.566 208.08 382.99 227.952C387.31 231.984 392.782 237.168 399.982 244.224C421.726 265.68 433.678 271.584 439.006 271.584C444.19 271.584 446.35 267.984 447.646 264.816L449.23 260.928C450.094 258.768 456.718 259.056 455.71 261.504L454.414 264.528C451.678 271.152 446.062 274.176 440.014 274.176ZM351.166 247.68C354.334 247.68 363.118 242.64 375.358 227.376C369.598 221.328 368.734 221.04 367.15 221.04C363.118 221.04 349.582 239.328 349.582 246.24C349.582 247.392 350.446 247.68 351.166 247.68ZM441.006 234C434.094 234 431.502 230.688 431.502 226.08C431.502 219.168 438.126 210.96 448.782 210.96C449.934 210.96 453.534 211.248 453.534 214.416C453.534 219.168 445.038 221.328 439.422 221.76C438.558 223.776 437.982 225.936 437.982 227.232C437.982 229.248 439.278 231.264 442.59 231.264C452.238 231.264 471.39 224.352 484.35 219.456C484.782 219.312 485.358 219.6 485.502 220.176C485.646 220.752 485.646 221.184 485.214 221.472C459.726 230.976 448.206 234 441.006 234ZM440.718 219.024C445.47 219.024 450.654 217.584 450.654 214.416C450.654 213.408 449.934 212.832 448.782 212.832C445.47 212.832 442.59 215.568 440.718 219.024ZM462.634 286.992C460.042 286.848 458.602 284.688 458.602 281.52C458.602 272.592 467.674 259.344 481.354 248.256C483.802 246.24 487.834 243.216 487.834 243.216L496.186 222.336C492.154 227.808 486.25 234 482.218 234C478.762 234 476.89 232.128 476.89 228.816C476.89 221.328 485.674 210.96 494.746 210.96C497.482 210.96 500.074 211.968 501.37 213.552C501.514 213.552 502.234 213.408 502.666 213.408C505.402 213.408 505.402 215.568 504.25 218.304L496.186 237.6C508.138 230.256 519.946 225.936 537.226 219.456C537.658 219.312 538.234 219.6 538.378 220.176C538.522 220.752 538.522 221.184 538.09 221.472C519.226 228.384 506.986 233.424 494.314 241.92C485.098 264.672 475.018 286.992 462.634 286.992ZM485.098 229.68C487.114 229.68 495.898 220.608 498.778 215.28C498.346 214.56 497.338 213.264 495.466 213.264C489.706 213.264 483.802 223.632 483.802 228.096C483.802 229.68 484.378 229.68 485.098 229.68ZM462.922 284.832C468.97 284.832 479.05 266.112 485.962 248.112C475.306 255.744 461.05 275.328 461.05 282.384C461.05 283.392 461.482 284.832 462.922 284.832ZM515.365 286.992C512.773 286.992 511.333 284.688 511.333 281.52C511.333 272.592 520.405 259.344 534.085 248.256C535.957 246.672 538.261 245.088 540.565 243.36L549.061 222.336C545.029 227.808 539.125 234 535.093 234C531.637 234 529.765 232.128 529.765 228.816C529.765 221.328 538.549 210.96 547.621 210.96C550.357 210.96 552.949 211.968 554.245 213.552C554.389 213.552 555.109 213.408 555.541 213.408C558.277 213.408 558.277 215.568 557.125 218.304L549.061 237.6C558.997 231.12 572.389 223.344 589.813 214.128C590.245 213.84 590.821 214.128 591.109 214.704C591.397 215.136 591.397 215.856 590.965 216.144C570.517 227.088 557.557 234.72 547.189 241.92C537.541 264.96 527.605 286.992 515.365 286.992ZM537.973 229.68C539.989 229.68 548.773 220.608 551.653 215.28C551.221 214.56 550.213 213.264 548.341 213.264C542.581 213.264 536.677 223.632 536.677 228.096C536.677 229.68 537.253 229.68 537.973 229.68ZM515.797 284.832C521.845 284.832 531.925 266.112 538.837 248.112C528.181 255.744 513.925 275.328 513.925 282.384C513.925 283.392 514.357 284.832 515.797 284.832ZM604.13 199.152C601.538 199.152 599.378 196.992 599.378 194.4C599.378 191.808 601.538 189.648 604.13 189.648C606.722 189.648 608.882 191.808 608.882 194.4C608.882 196.992 606.722 199.152 604.13 199.152ZM593.042 234C588.866 234 586.13 231.408 587.858 227.376L592.178 217.008C592.466 216.288 591.746 215.856 590.882 216.288C590.306 216.576 589.73 216.576 589.298 215.856C589.01 215.28 589.154 214.56 589.73 214.272L594.626 211.68C595.778 211.104 596.642 210.96 597.506 210.96C599.234 210.96 600.674 211.968 599.522 214.704L594.482 226.8C593.474 229.392 592.898 231.12 596.642 231.12C603.698 231.12 625.298 219.168 634.658 214.128C635.09 213.84 635.666 214.128 635.954 214.704C636.242 215.136 636.242 215.856 635.81 216.144C619.394 224.928 602.834 234 593.042 234ZM632.148 234C630.996 234 629.844 233.568 630.564 231.84L636.756 217.008C637.044 216.288 636.324 215.856 635.46 216.288C634.884 216.576 634.308 216.576 633.876 215.856C633.588 215.28 633.732 214.56 634.308 214.272L639.204 211.68C640.356 211.104 641.22 210.96 642.084 210.96C643.812 210.96 645.252 211.968 644.1 214.704L641.22 221.616C644.388 217.728 651.156 210.96 656.196 210.96C658.5 210.96 660.516 212.4 658.356 217.44L654.468 226.8C653.46 229.248 653.028 231.12 656.628 231.12C663.252 231.12 684.708 223.2 694.932 219.456C695.364 219.312 695.94 219.6 696.084 220.176C696.228 220.752 696.228 221.184 695.796 221.472C678.084 227.952 661.38 234 653.028 234C648.852 234 646.116 231.408 647.844 227.376L652.02 217.44C652.74 215.712 650.724 216.288 649.572 217.152C645.972 219.888 641.076 224.496 637.188 231.264C636.18 233.136 634.308 234 632.148 234ZM673.006 286.992C670.414 286.992 668.974 284.688 668.974 281.52C668.974 272.592 678.046 259.344 691.726 248.256C693.598 246.672 695.902 245.088 698.206 243.36L706.702 222.336C702.67 227.808 696.766 234 692.734 234C689.278 234 687.406 232.128 687.406 228.816C687.406 221.328 696.19 210.96 705.262 210.96C707.998 210.96 710.59 211.968 711.886 213.552C712.03 213.552 712.75 213.408 713.182 213.408C715.918 213.408 715.918 215.568 714.766 218.304L706.702 237.6C716.638 231.12 730.03 223.344 747.454 214.128C747.886 213.84 748.462 214.128 748.75 214.704C749.038 215.136 749.038 215.856 748.606 216.144C728.158 227.088 715.198 234.72 704.83 241.92C695.182 264.96 685.246 286.992 673.006 286.992ZM695.614 229.68C697.63 229.68 706.414 220.608 709.294 215.28C708.862 214.56 707.854 213.264 705.982 213.264C700.222 213.264 694.318 223.632 694.318 228.096C694.318 229.68 694.894 229.68 695.614 229.68ZM673.438 284.832C679.486 284.832 689.566 266.112 696.478 248.112C685.822 255.744 671.566 275.328 671.566 282.384C671.566 283.392 671.998 284.832 673.438 284.832ZM745.354 236.016C738.874 236.016 738.586 232.128 739.882 229.536C740.746 227.808 742.474 227.664 743.338 227.664C744.922 227.664 745.93 228.384 744.634 231.264C743.914 232.704 744.058 234.144 746.074 234.144C749.962 234.144 751.834 228.96 751.978 224.064L752.266 214.272L748.522 216.288C747.946 216.576 747.37 216.576 746.938 215.856C746.65 215.28 746.938 214.56 747.37 214.272L752.41 211.392C752.698 206.784 757.018 200.448 760.618 200.448C761.77 200.448 762.202 201.168 762.202 202.32C762.202 205.632 758.026 210.096 755.29 212.112C755.29 215.424 757.882 218.592 757.882 224.352C757.882 228.24 754.858 236.016 745.354 236.016Z" fill="#707070" fill-opacity="0.3"/>
</svg>
