<svg width="99" height="98" viewBox="0 0 99 98" fill="none" xmlns="http://www.w3.org/2000/svg">
<path d="M48.6816 84.7507C44.1083 85.1086 39.7015 83.5293 35.4535 81.9571C29.0889 79.6184 22.4946 77.1429 17.8291 72.1343C15.9985 70.1666 14.5371 67.8146 13.3617 65.3327C10.4781 59.1855 9.57943 52.0242 10.7803 45.1671C13.1551 31.4408 24.1311 19.7702 37.0592 15.5122C49.9873 11.2541 64.3226 13.9662 75.4456 21.3232C80.1872 24.4507 84.5717 28.6498 86.3628 34.2034C87.9608 39.1824 87.3051 44.6962 86.4417 49.9533C85.1454 57.806 83.3627 65.7299 79.4829 72.7014C75.6031 79.6729 69.3477 85.6628 61.8143 87.4685" fill="#D12334"/>
<path d="M27.7644 43.0275L33.7314 53.3626L39.4212 50.0776L40.0872 51.2312L33.0412 55.2992L26.4082 43.8105L27.7644 43.0275ZM46.242 42.6062L40.6613 45.8282C41.7863 47.7768 43.336 48.337 44.7546 47.518C45.8302 46.897 46.1813 46.0292 45.8451 44.7268L47.2392 44.4415C47.5528 46.1726 46.9559 47.5149 45.288 48.4779C43.1368 49.7199 40.8338 48.971 39.3398 46.3834C37.8728 43.8424 38.3841 41.3441 40.3639 40.2011C42.3124 39.0761 44.604 39.7691 46.08 42.3256L46.242 42.6062ZM40.1705 44.9061L44.4885 42.4131C43.4368 40.8795 42.1533 40.4565 40.9374 41.1585C39.706 41.8695 39.4066 43.331 40.1705 44.9061ZM46.2006 33.4018L47.7936 36.1609L49.6954 35.0629L50.2624 36.045L48.3606 37.143L51.1956 42.0534C51.7086 42.9419 52.3323 43.1222 53.0493 42.7082C53.3923 42.5102 53.6795 42.3236 53.993 42.0387L54.4976 43.0568C54.0972 43.3711 53.7476 43.5937 53.3112 43.8457C51.9706 44.6197 50.8755 44.379 50.0835 43.0072L47.1135 37.863L45.8196 38.61L45.2526 37.6279L46.5465 36.8809L45.1155 34.4024L46.2006 33.4018ZM51.0376 29.5907L51.9916 31.243L52.318 33.8605L51.6166 34.2655L51.181 31.711L50.2924 32.224L49.3384 30.5717L51.0376 29.5907ZM62.0486 30.2379L61.0577 31.3296C60.2707 30.5785 59.3927 30.4618 58.5354 30.9568C57.5065 31.5508 57.1842 32.3605 57.5712 33.0308C58.0122 33.7946 58.5351 33.9084 60.009 33.4731L60.7381 33.26C62.8139 32.6435 63.8352 32.8644 64.5912 34.1739C65.3652 35.5145 64.9616 37.1193 62.8883 38.3163C61.3295 39.2163 59.8471 39.2408 58.6079 38.2104L59.5873 37.0629C60.4997 37.8871 61.491 37.876 62.3795 37.363C63.6889 36.607 63.8368 35.7111 63.4318 35.0096C62.9458 34.1678 62.4966 34.0738 60.8308 34.5367L60.1107 34.7654C58.057 35.3483 57.1515 35.0398 56.4405 33.8083C55.7385 32.5924 56.1248 31.1015 58.011 30.0125C59.5075 29.1485 60.8765 29.2518 62.0486 30.2379ZM45.4218 59.391L46.0878 60.5446L42.4869 62.6236L48.4539 72.9587L47.0821 73.7507L41.1151 63.4156L37.5454 65.4766L36.8794 64.323L45.4218 59.391ZM51.558 60.317L52.1755 61.6025C51.1934 62.1695 50.677 63.5069 51.0781 65.3537L53.7151 69.9212L52.4525 70.6502L47.8535 62.6845L49.0694 61.9825L50.2394 64.009C49.9497 62.1393 50.5136 60.92 51.558 60.317ZM59.2831 56.0856L61.1986 66.0994C61.6101 68.2521 61.084 69.4288 59.6654 70.2478C59.4472 70.3738 59.1732 70.5112 58.8656 70.6264L58.1846 69.627C58.5324 69.5094 58.8154 69.3875 59.0648 69.2435C59.9222 68.7485 60.238 67.9635 59.9551 66.6095L59.8638 66.1634L52.5956 59.9466L53.9518 59.1636L57.9648 62.8742C58.5544 63.4275 59.0523 63.9299 59.6354 64.5078L59.7913 64.4178C59.5913 63.6395 59.3938 62.9013 59.2095 62.114L57.9892 56.8326L59.2831 56.0856ZM61.119 50.3283L65.5551 58.8037L64.5574 59.3797L59.4667 51.2823L61.119 50.3283ZM66.8046 60.14L67.7676 61.8079L66.0685 62.7889L65.1055 61.121L66.8046 60.14Z" fill="white"/>
</svg>
