<svg width="133" height="132" viewBox="0 0 133 132" fill="none" xmlns="http://www.w3.org/2000/svg">
<path d="M65.6545 114.183C59.4888 114.666 53.5475 112.536 47.8204 110.417C39.2396 107.264 30.3491 103.926 24.0589 97.1736C21.591 94.5207 19.6207 91.3497 18.036 88.0036C14.1484 79.7159 12.9367 70.061 14.5557 60.8162C17.7575 42.3103 32.5554 26.576 49.9851 20.8353C67.4149 15.0946 86.7419 18.751 101.738 28.6697C108.131 32.8863 114.042 38.5475 116.457 46.0349C118.611 52.7476 117.727 60.1813 116.563 67.269C114.815 77.856 112.412 88.5391 107.181 97.9382C101.95 107.337 93.5166 115.413 83.3601 117.847" fill="#D12334"/>
<path d="M31.7702 75.0482L37.7281 85.3675L43.4091 82.0875L44.0741 83.2393L37.0389 87.301L30.4161 75.83L31.7702 75.0482ZM50.2195 74.6276L44.6473 77.8446C45.7706 79.7902 47.318 80.3495 48.7343 79.5318C49.8083 78.9118 50.1589 78.0453 49.8232 76.7449L51.2152 76.46C51.5283 78.1885 50.9323 79.5287 49.2669 80.4902C47.119 81.7303 44.8196 80.9826 43.3279 78.3989C41.8631 75.8619 42.3737 73.3673 44.3504 72.2261C46.2959 71.1028 48.584 71.7948 50.0577 74.3474L50.2195 74.6276ZM44.1573 76.9239L48.4687 74.4348C47.4186 72.9035 46.1371 72.4812 44.9231 73.1821C43.6935 73.892 43.3946 75.3513 44.1573 76.9239ZM50.1781 65.4372L51.7687 68.1922L53.6676 67.0958L54.2337 68.0764L52.3348 69.1727L55.1655 74.0756C55.6777 74.9627 56.3004 75.1428 57.0164 74.7294C57.3588 74.5317 57.6456 74.3454 57.9586 74.0609L58.4625 75.0774C58.0626 75.3913 57.7136 75.6135 57.2778 75.8651C55.9393 76.638 54.8459 76.3976 54.0551 75.0279L51.0896 69.8916L49.7978 70.6375L49.2317 69.6569L50.5235 68.9111L49.0947 66.4363L50.1781 65.4372ZM55.0077 61.632L55.9603 63.2818L56.2862 65.8952L55.5858 66.2996L55.1509 63.7491L54.2637 64.2613L53.3112 62.6115L55.0077 61.632ZM66.0019 62.2782L65.0125 63.3682C64.2267 62.6182 63.3501 62.5018 62.494 62.996C61.4668 63.5891 61.1449 64.3975 61.5313 65.0668C61.9716 65.8295 62.4938 65.943 63.9653 65.5085L64.6934 65.2957C66.766 64.6801 67.7858 64.9007 68.5406 66.2082C69.3134 67.5467 68.9104 69.1491 66.8403 70.3442C65.2838 71.2429 63.8037 71.2673 62.5664 70.2384L63.5444 69.0927C64.4553 69.9157 65.4451 69.9046 66.3322 69.3924C67.6397 68.6376 67.7873 67.743 67.3829 67.0426C66.8976 66.2021 66.4491 66.1082 64.786 66.5704L64.067 66.7988C62.0164 67.3808 61.1122 67.0727 60.4023 65.8431C59.7014 64.6291 60.0871 63.1405 61.9704 62.0532C63.4646 61.1905 64.8316 61.2936 66.0019 62.2782ZM77.6352 48.568L78.3002 49.7198L74.7048 51.7956L80.6626 62.1149L79.2929 62.9057L73.3351 52.5864L69.7708 54.6442L69.1058 53.4924L77.6352 48.568ZM83.762 49.4925L84.3785 50.7761C83.3979 51.3422 82.8823 52.6776 83.2828 54.5216L85.9158 59.082L84.655 59.8099L80.0631 51.8564L81.2771 51.1555L82.4453 53.1788C82.1561 51.312 82.7192 50.0946 83.762 49.4925ZM91.4752 45.2676L93.3878 55.2661C93.7986 57.4154 93.2733 58.5903 91.8569 59.4081C91.639 59.5339 91.3654 59.6711 91.0583 59.7862L90.3784 58.7883C90.7257 58.6708 91.0082 58.5492 91.2573 58.4054C92.1133 57.9111 92.4286 57.1273 92.1462 55.7754L92.055 55.33L84.798 49.1227L86.1521 48.3409L90.1589 52.0458C90.7477 52.5983 91.2448 53.0999 91.827 53.6769L91.9826 53.587C91.783 52.8099 91.5857 52.0729 91.4017 51.2868L90.1833 46.0134L91.4752 45.2676ZM93.3083 39.5191L97.7376 47.9816L96.7414 48.5567L91.6585 40.4717L93.3083 39.5191ZM98.9852 49.3158L99.9467 50.9812L98.2502 51.9607L97.2887 50.2953L98.9852 49.3158Z" fill="white"/>
</svg>
